<svg width="500" height="296" viewBox="0 0 500 296" fill="none" xmlns="http://www.w3.org/2000/svg">
<g clip-path="url(#clip0_334_2537)">
<path d="M500 0H0V296H500V0Z" fill="white"/>
<path d="M357.854 295.651C357.96 278.43 373.774 264.547 393.167 264.642C412.56 264.737 428.194 278.779 428.087 296" stroke="#1D262D" stroke-width="2" stroke-miterlimit="10"/>
<path d="M419.113 295.953C419.193 283.13 407.553 272.681 393.12 272.61C378.68 272.539 366.913 282.875 366.833 295.692L419.113 295.953Z" fill="#8BD2BD"/>
<path d="M181.333 80.1454C181.44 62.9242 197.253 49.0417 216.647 49.1365C236.04 49.2312 251.673 63.2734 251.567 80.4947" stroke="#1D262D" stroke-width="2" stroke-miterlimit="10"/>
<path d="M242.593 80.4474C242.673 67.6247 231.033 57.1759 216.6 57.1049C202.16 57.0338 190.393 67.3701 190.313 80.1869L242.593 80.4474Z" fill="#8BD2BD"/>
<path d="M228.28 148L250 159.136L271.72 148V125.729L250 114.594L228.28 125.729V148Z" fill="#69779B"/>
<path d="M228.28 170.271L250 181.407L271.72 170.271V148L250 136.865L228.28 148V170.271Z" stroke="#1D262D" stroke-width="2" stroke-miterlimit="10"/>
<path d="M155.027 64.528L127.687 22.4723H182.367L155.027 64.528Z" fill="#8BD2BD"/>
<path d="M2 25L11.22 34.6733L20.44 25L29.66 34.6733L38.88 25L48.1067 34.6733L57.3333 25" stroke="#1D262D" stroke-width="4" stroke-miterlimit="10"/>
<path d="M2 12L11.22 21.6733L20.44 12L29.66 21.6733L38.88 12L48.1067 21.6733L57.3333 12" stroke="#1D262D" stroke-width="4" stroke-miterlimit="10"/>
<path d="M37.84 255.602H0V289.204H37.84V255.602Z" stroke="#1D262D" stroke-width="2" stroke-miterlimit="10"/>
<path d="M56.7599 238.801H18.9199V272.403H56.7599V238.801Z" fill="#69779B"/>
<path d="M183.08 214.322C181.6 214.322 180.393 213.256 180.393 211.936C180.393 210.616 181.593 209.55 183.08 209.55C184.56 209.55 185.766 210.616 185.766 211.936C185.766 213.256 184.566 214.322 183.08 214.322Z" fill="#69779B"/>
<path d="M183.08 227.109C181.6 227.109 180.393 226.043 180.393 224.723C180.393 223.409 181.593 222.338 183.08 222.338C184.56 222.338 185.766 223.403 185.766 224.723C185.766 226.038 184.566 227.109 183.08 227.109Z" fill="#69779B"/>
<path d="M183.08 239.896C181.6 239.896 180.393 238.831 180.393 237.511C180.393 236.19 181.593 235.125 183.08 235.125C184.56 235.125 185.766 236.19 185.766 237.511C185.766 238.831 184.566 239.896 183.08 239.896Z" fill="#69779B"/>
<path d="M183.08 252.678C181.6 252.678 180.393 251.612 180.393 250.292C180.393 248.972 181.593 247.906 183.08 247.906C184.56 247.906 185.766 248.972 185.766 250.292C185.766 251.612 184.566 252.678 183.08 252.678Z" fill="#1D262D"/>
<path d="M183.08 265.465C181.6 265.465 180.393 264.399 180.393 263.079C180.393 261.765 181.593 260.693 183.08 260.693C184.56 260.693 185.766 261.759 185.766 263.079C185.766 264.399 184.566 265.465 183.08 265.465Z" fill="#69779B"/>
<path d="M183.08 278.252C181.6 278.252 180.393 277.186 180.393 275.866C180.393 274.546 181.593 273.48 183.08 273.48C184.56 273.48 185.766 274.546 185.766 275.866C185.766 277.186 184.566 278.252 183.08 278.252Z" fill="#69779B"/>
<path d="M183.08 291.039C181.6 291.039 180.393 289.973 180.393 288.653C180.393 287.333 181.593 286.268 183.08 286.268C184.56 286.268 185.766 287.333 185.766 288.653C185.766 289.973 184.566 291.039 183.08 291.039Z" fill="#1D262D"/>
<path d="M171.96 214.322C173.444 214.322 174.647 213.254 174.647 211.936C174.647 210.618 173.444 209.55 171.96 209.55C170.476 209.55 169.273 210.618 169.273 211.936C169.273 213.254 170.476 214.322 171.96 214.322Z" fill="#69779B"/>
<path d="M171.96 227.109C170.48 227.109 169.273 226.043 169.273 224.723C169.273 223.409 170.473 222.338 171.96 222.338C173.44 222.338 174.647 223.403 174.647 224.723C174.647 226.038 173.44 227.109 171.96 227.109Z" stroke="#69779B" stroke-miterlimit="10"/>
<path d="M171.96 239.896C173.444 239.896 174.647 238.828 174.647 237.511C174.647 236.193 173.444 235.125 171.96 235.125C170.476 235.125 169.273 236.193 169.273 237.511C169.273 238.828 170.476 239.896 171.96 239.896Z" fill="#69779B"/>
<path d="M171.96 252.683C173.444 252.683 174.647 251.615 174.647 250.298C174.647 248.98 173.444 247.912 171.96 247.912C170.476 247.912 169.273 248.98 169.273 250.298C169.273 251.615 170.476 252.683 171.96 252.683Z" fill="#69779B"/>
<path d="M171.96 265.465C170.48 265.465 169.273 264.399 169.273 263.079C169.273 261.765 170.473 260.693 171.96 260.693C173.44 260.693 174.647 261.759 174.647 263.079C174.647 264.399 173.44 265.465 171.96 265.465Z" fill="#69779B"/>
<path d="M171.96 278.258C173.444 278.258 174.647 277.19 174.647 275.872C174.647 274.554 173.444 273.486 171.96 273.486C170.476 273.486 169.273 274.554 169.273 275.872C169.273 277.19 170.476 278.258 171.96 278.258Z" stroke="#69779B" stroke-miterlimit="10"/>
<path d="M171.96 291.045C173.444 291.045 174.647 289.977 174.647 288.659C174.647 287.342 173.444 286.273 171.96 286.273C170.476 286.273 169.273 287.342 169.273 288.659C169.273 289.977 170.476 291.045 171.96 291.045Z" fill="#69779B"/>
<path d="M160.833 214.322C162.317 214.322 163.52 213.254 163.52 211.936C163.52 210.618 162.317 209.55 160.833 209.55C159.349 209.55 158.146 210.618 158.146 211.936C158.146 213.254 159.349 214.322 160.833 214.322Z" fill="#69779B"/>
<path d="M160.833 227.109C159.353 227.109 158.146 226.043 158.146 224.723C158.146 223.409 159.346 222.338 160.833 222.338C162.32 222.338 163.52 223.403 163.52 224.723C163.52 226.038 162.32 227.109 160.833 227.109Z" fill="#69779B"/>
<path d="M160.833 239.896C162.317 239.896 163.52 238.828 163.52 237.511C163.52 236.193 162.317 235.125 160.833 235.125C159.349 235.125 158.146 236.193 158.146 237.511C158.146 238.828 159.349 239.896 160.833 239.896Z" fill="#69779B"/>
<path d="M160.833 252.683C162.317 252.683 163.52 251.615 163.52 250.298C163.52 248.98 162.317 247.912 160.833 247.912C159.349 247.912 158.146 248.98 158.146 250.298C158.146 251.615 159.349 252.683 160.833 252.683Z" fill="#69779B"/>
<path d="M160.833 265.465C159.353 265.465 158.146 264.399 158.146 263.079C158.146 261.765 159.346 260.693 160.833 260.693C162.32 260.693 163.52 261.759 163.52 263.079C163.52 264.399 162.32 265.465 160.833 265.465Z" fill="#1D262D"/>
<path d="M160.833 278.258C162.317 278.258 163.52 277.19 163.52 275.872C163.52 274.554 162.317 273.486 160.833 273.486C159.349 273.486 158.146 274.554 158.146 275.872C158.146 277.19 159.349 278.258 160.833 278.258Z" fill="#69779B"/>
<path d="M160.833 291.045C162.317 291.045 163.52 289.977 163.52 288.659C163.52 287.342 162.317 286.273 160.833 286.273C159.349 286.273 158.146 287.342 158.146 288.659C158.146 289.977 159.349 291.045 160.833 291.045Z" fill="#69779B"/>
<path d="M149.707 214.322C151.19 214.322 152.393 213.254 152.393 211.936C152.393 210.618 151.19 209.55 149.707 209.55C148.223 209.55 147.02 210.618 147.02 211.936C147.02 213.254 148.223 214.322 149.707 214.322Z" fill="#69779B"/>
<path d="M149.707 227.109C148.227 227.109 147.02 226.043 147.02 224.723C147.02 223.409 148.22 222.338 149.707 222.338C151.193 222.338 152.393 223.403 152.393 224.723C152.393 226.038 151.193 227.109 149.707 227.109Z" fill="#1D262D"/>
<path d="M149.707 239.896C151.19 239.896 152.393 238.828 152.393 237.511C152.393 236.193 151.19 235.125 149.707 235.125C148.223 235.125 147.02 236.193 147.02 237.511C147.02 238.828 148.223 239.896 149.707 239.896Z" fill="#69779B"/>
<path d="M149.707 252.683C151.19 252.683 152.393 251.615 152.393 250.298C152.393 248.98 151.19 247.912 149.707 247.912C148.223 247.912 147.02 248.98 147.02 250.298C147.02 251.615 148.223 252.683 149.707 252.683Z" stroke="#69779B" stroke-miterlimit="10"/>
<path d="M149.707 265.465C148.227 265.465 147.02 264.399 147.02 263.079C147.02 261.765 148.22 260.693 149.707 260.693C151.193 260.693 152.393 261.759 152.393 263.079C152.393 264.399 151.193 265.465 149.707 265.465Z" fill="#69779B"/>
<path d="M149.707 278.258C151.19 278.258 152.393 277.19 152.393 275.872C152.393 274.554 151.19 273.486 149.707 273.486C148.223 273.486 147.02 274.554 147.02 275.872C147.02 277.19 148.223 278.258 149.707 278.258Z" fill="#69779B"/>
<path d="M149.707 291.045C151.19 291.045 152.393 289.977 152.393 288.659C152.393 287.342 151.19 286.273 149.707 286.273C148.223 286.273 147.02 287.342 147.02 288.659C147.02 289.977 148.223 291.045 149.707 291.045Z" fill="#69779B"/>
<path d="M138.587 214.322C140.07 214.322 141.273 213.254 141.273 211.936C141.273 210.618 140.07 209.55 138.587 209.55C137.103 209.55 135.9 210.618 135.9 211.936C135.9 213.254 137.103 214.322 138.587 214.322Z" stroke="#69779B" stroke-miterlimit="10"/>
<path d="M138.587 227.109C137.107 227.109 135.9 226.043 135.9 224.723C135.9 223.409 137.1 222.338 138.587 222.338C140.067 222.338 141.273 223.403 141.273 224.723C141.273 226.038 140.067 227.109 138.587 227.109Z" fill="#69779B"/>
<path d="M138.587 239.896C140.07 239.896 141.273 238.828 141.273 237.511C141.273 236.193 140.07 235.125 138.587 235.125C137.103 235.125 135.9 236.193 135.9 237.511C135.9 238.828 137.103 239.896 138.587 239.896Z" fill="#69779B"/>
<path d="M138.587 252.683C140.07 252.683 141.273 251.615 141.273 250.298C141.273 248.98 140.07 247.912 138.587 247.912C137.103 247.912 135.9 248.98 135.9 250.298C135.9 251.615 137.103 252.683 138.587 252.683Z" fill="#69779B"/>
<path d="M138.587 265.465C137.107 265.465 135.9 264.399 135.9 263.079C135.9 261.765 137.1 260.693 138.587 260.693C140.067 260.693 141.273 261.759 141.273 263.079C141.273 264.399 140.067 265.465 138.587 265.465Z" fill="#69779B"/>
<path d="M138.587 278.258C140.07 278.258 141.273 277.19 141.273 275.872C141.273 274.554 140.07 273.486 138.587 273.486C137.103 273.486 135.9 274.554 135.9 275.872C135.9 277.19 137.103 278.258 138.587 278.258Z" fill="#69779B"/>
<path d="M138.587 291.045C140.07 291.045 141.273 289.977 141.273 288.659C141.273 287.342 140.07 286.273 138.587 286.273C137.103 286.273 135.9 287.342 135.9 288.659C135.9 289.977 137.103 291.045 138.587 291.045Z" fill="#69779B"/>
<path d="M183.08 214.322C181.6 214.322 180.394 213.256 180.394 211.936C180.394 210.616 181.594 209.55 183.08 209.55C184.56 209.55 185.767 210.616 185.767 211.936C185.767 213.256 184.567 214.322 183.08 214.322Z" fill="#69779B"/>
<path d="M183.08 227.109C181.6 227.109 180.394 226.043 180.394 224.723C180.394 223.409 181.594 222.338 183.08 222.338C184.56 222.338 185.767 223.403 185.767 224.723C185.767 226.038 184.567 227.109 183.08 227.109Z" fill="#69779B"/>
<path d="M183.08 239.896C181.6 239.896 180.394 238.831 180.394 237.511C180.394 236.19 181.594 235.125 183.08 235.125C184.56 235.125 185.767 236.19 185.767 237.511C185.767 238.831 184.567 239.896 183.08 239.896Z" fill="#69779B"/>
<path d="M183.08 252.678C181.6 252.678 180.394 251.612 180.394 250.292C180.394 248.972 181.594 247.906 183.08 247.906C184.56 247.906 185.767 248.972 185.767 250.292C185.767 251.612 184.567 252.678 183.08 252.678Z" fill="#1D262D"/>
<path d="M183.08 265.465C181.6 265.465 180.394 264.399 180.394 263.079C180.394 261.765 181.594 260.693 183.08 260.693C184.56 260.693 185.767 261.759 185.767 263.079C185.767 264.399 184.567 265.465 183.08 265.465Z" fill="#69779B"/>
<path d="M183.08 278.252C181.6 278.252 180.394 277.186 180.394 275.866C180.394 274.546 181.594 273.48 183.08 273.48C184.56 273.48 185.767 274.546 185.767 275.866C185.767 277.186 184.567 278.252 183.08 278.252Z" fill="#69779B"/>
<path d="M183.08 291.039C181.6 291.039 180.394 289.974 180.394 288.653C180.394 287.333 181.594 286.268 183.08 286.268C184.56 286.268 185.767 287.333 185.767 288.653C185.767 289.974 184.567 291.039 183.08 291.039Z" fill="#1D262D"/>
<path d="M171.96 214.322C173.444 214.322 174.647 213.254 174.647 211.936C174.647 210.618 173.444 209.55 171.96 209.55C170.476 209.55 169.273 210.618 169.273 211.936C169.273 213.254 170.476 214.322 171.96 214.322Z" fill="#69779B"/>
<path d="M171.96 227.109C170.48 227.109 169.273 226.043 169.273 224.723C169.273 223.409 170.473 222.338 171.96 222.338C173.44 222.338 174.647 223.403 174.647 224.723C174.647 226.038 173.44 227.109 171.96 227.109Z" stroke="#69779B" stroke-miterlimit="10"/>
<path d="M171.96 239.896C173.444 239.896 174.647 238.828 174.647 237.511C174.647 236.193 173.444 235.125 171.96 235.125C170.476 235.125 169.273 236.193 169.273 237.511C169.273 238.828 170.476 239.896 171.96 239.896Z" fill="#69779B"/>
<path d="M171.96 252.683C173.444 252.683 174.647 251.615 174.647 250.298C174.647 248.98 173.444 247.912 171.96 247.912C170.476 247.912 169.273 248.98 169.273 250.298C169.273 251.615 170.476 252.683 171.96 252.683Z" fill="#69779B"/>
<path d="M171.96 265.465C170.48 265.465 169.273 264.399 169.273 263.079C169.273 261.765 170.473 260.693 171.96 260.693C173.44 260.693 174.647 261.759 174.647 263.079C174.647 264.399 173.44 265.465 171.96 265.465Z" fill="#69779B"/>
<path d="M171.96 278.258C173.444 278.258 174.647 277.19 174.647 275.872C174.647 274.554 173.444 273.486 171.96 273.486C170.476 273.486 169.273 274.554 169.273 275.872C169.273 277.19 170.476 278.258 171.96 278.258Z" stroke="#69779B" stroke-miterlimit="10"/>
<path d="M171.96 291.045C173.444 291.045 174.647 289.977 174.647 288.659C174.647 287.342 173.444 286.274 171.96 286.274C170.476 286.274 169.273 287.342 169.273 288.659C169.273 289.977 170.476 291.045 171.96 291.045Z" fill="#69779B"/>
<path d="M160.834 214.322C162.317 214.322 163.52 213.254 163.52 211.936C163.52 210.618 162.317 209.55 160.834 209.55C159.35 209.55 158.147 210.618 158.147 211.936C158.147 213.254 159.35 214.322 160.834 214.322Z" fill="#69779B"/>
<path d="M160.834 227.109C159.354 227.109 158.147 226.043 158.147 224.723C158.147 223.409 159.347 222.338 160.834 222.338C162.32 222.338 163.52 223.403 163.52 224.723C163.52 226.038 162.32 227.109 160.834 227.109Z" fill="#69779B"/>
<path d="M160.834 239.896C162.317 239.896 163.52 238.828 163.52 237.511C163.52 236.193 162.317 235.125 160.834 235.125C159.35 235.125 158.147 236.193 158.147 237.511C158.147 238.828 159.35 239.896 160.834 239.896Z" fill="#69779B"/>
<path d="M160.834 252.683C162.317 252.683 163.52 251.615 163.52 250.298C163.52 248.98 162.317 247.912 160.834 247.912C159.35 247.912 158.147 248.98 158.147 250.298C158.147 251.615 159.35 252.683 160.834 252.683Z" fill="#69779B"/>
<path d="M160.834 265.465C159.354 265.465 158.147 264.399 158.147 263.079C158.147 261.765 159.347 260.693 160.834 260.693C162.32 260.693 163.52 261.759 163.52 263.079C163.52 264.399 162.32 265.465 160.834 265.465Z" fill="#1D262D"/>
<path d="M160.834 278.258C162.317 278.258 163.52 277.19 163.52 275.872C163.52 274.554 162.317 273.486 160.834 273.486C159.35 273.486 158.147 274.554 158.147 275.872C158.147 277.19 159.35 278.258 160.834 278.258Z" fill="#69779B"/>
<path d="M160.834 291.045C162.317 291.045 163.52 289.977 163.52 288.659C163.52 287.342 162.317 286.274 160.834 286.274C159.35 286.274 158.147 287.342 158.147 288.659C158.147 289.977 159.35 291.045 160.834 291.045Z" fill="#69779B"/>
<path d="M149.707 214.322C151.191 214.322 152.394 213.254 152.394 211.936C152.394 210.618 151.191 209.55 149.707 209.55C148.223 209.55 147.021 210.618 147.021 211.936C147.021 213.254 148.223 214.322 149.707 214.322Z" fill="#69779B"/>
<path d="M149.707 227.109C148.227 227.109 147.021 226.043 147.021 224.723C147.021 223.409 148.221 222.338 149.707 222.338C151.194 222.338 152.394 223.403 152.394 224.723C152.394 226.038 151.194 227.109 149.707 227.109Z" fill="#1D262D"/>
<path d="M149.707 239.896C151.191 239.896 152.394 238.828 152.394 237.511C152.394 236.193 151.191 235.125 149.707 235.125C148.223 235.125 147.021 236.193 147.021 237.511C147.021 238.828 148.223 239.896 149.707 239.896Z" fill="#69779B"/>
<path d="M149.707 252.683C151.191 252.683 152.394 251.615 152.394 250.298C152.394 248.98 151.191 247.912 149.707 247.912C148.223 247.912 147.021 248.98 147.021 250.298C147.021 251.615 148.223 252.683 149.707 252.683Z" stroke="#69779B" stroke-miterlimit="10"/>
<path d="M149.707 265.465C148.227 265.465 147.021 264.399 147.021 263.079C147.021 261.765 148.221 260.693 149.707 260.693C151.194 260.693 152.394 261.759 152.394 263.079C152.394 264.399 151.194 265.465 149.707 265.465Z" fill="#69779B"/>
<path d="M149.707 278.258C151.191 278.258 152.394 277.19 152.394 275.872C152.394 274.554 151.191 273.486 149.707 273.486C148.223 273.486 147.021 274.554 147.021 275.872C147.021 277.19 148.223 278.258 149.707 278.258Z" fill="#69779B"/>
<path d="M149.707 291.045C151.191 291.045 152.394 289.977 152.394 288.659C152.394 287.342 151.191 286.274 149.707 286.274C148.223 286.274 147.021 287.342 147.021 288.659C147.021 289.977 148.223 291.045 149.707 291.045Z" fill="#69779B"/>
<path d="M138.587 214.322C140.071 214.322 141.274 213.254 141.274 211.936C141.274 210.618 140.071 209.55 138.587 209.55C137.103 209.55 135.9 210.618 135.9 211.936C135.9 213.254 137.103 214.322 138.587 214.322Z" stroke="#69779B" stroke-miterlimit="10"/>
<path d="M138.587 227.109C137.107 227.109 135.9 226.043 135.9 224.723C135.9 223.409 137.1 222.338 138.587 222.338C140.067 222.338 141.274 223.403 141.274 224.723C141.274 226.038 140.067 227.109 138.587 227.109Z" fill="#69779B"/>
<path d="M138.587 239.896C140.071 239.896 141.274 238.828 141.274 237.511C141.274 236.193 140.071 235.125 138.587 235.125C137.103 235.125 135.9 236.193 135.9 237.511C135.9 238.828 137.103 239.896 138.587 239.896Z" fill="#69779B"/>
<path d="M138.587 252.683C140.071 252.683 141.274 251.615 141.274 250.298C141.274 248.98 140.071 247.912 138.587 247.912C137.103 247.912 135.9 248.98 135.9 250.298C135.9 251.615 137.103 252.683 138.587 252.683Z" fill="#69779B"/>
<path d="M138.587 265.465C137.107 265.465 135.9 264.399 135.9 263.079C135.9 261.765 137.1 260.693 138.587 260.693C140.067 260.693 141.274 261.759 141.274 263.079C141.274 264.399 140.067 265.465 138.587 265.465Z" fill="#69779B"/>
<path d="M138.587 278.258C140.071 278.258 141.274 277.19 141.274 275.872C141.274 274.554 140.071 273.486 138.587 273.486C137.103 273.486 135.9 274.554 135.9 275.872C135.9 277.19 137.103 278.258 138.587 278.258Z" fill="#69779B"/>
<path d="M138.587 291.045C140.071 291.045 141.274 289.977 141.274 288.659C141.274 287.342 140.071 286.274 138.587 286.274C137.103 286.274 135.9 287.342 135.9 288.659C135.9 289.977 137.103 291.045 138.587 291.045Z" fill="#69779B"/>
<path d="M369.286 101.86C370.77 101.86 371.973 100.791 371.973 99.4738C371.973 98.1562 370.77 97.088 369.286 97.088C367.803 97.088 366.6 98.1562 366.6 99.4738C366.6 100.791 367.803 101.86 369.286 101.86Z" fill="#69779B"/>
<path d="M386.367 99.4738C386.367 100.788 385.167 101.86 383.68 101.86C382.2 101.86 380.993 100.794 380.993 99.4738C380.993 98.1595 382.193 97.088 383.68 97.088C385.167 97.088 386.367 98.1536 386.367 99.4738Z" fill="#69779B"/>
<path d="M369.287 111.734C370.771 111.734 371.973 110.666 371.973 109.348C371.973 108.031 370.771 106.963 369.287 106.963C367.803 106.963 366.6 108.031 366.6 109.348C366.6 110.666 367.803 111.734 369.287 111.734Z" fill="#69779B"/>
<path d="M386.367 109.348C386.367 110.663 385.167 111.734 383.68 111.734C382.2 111.734 380.993 110.668 380.993 109.348C380.993 108.028 382.193 106.963 383.68 106.963C385.167 106.968 386.367 108.034 386.367 109.348Z" stroke="#69779B" stroke-miterlimit="10"/>
<path d="M369.287 121.615C370.771 121.615 371.973 120.546 371.973 119.229C371.973 117.911 370.771 116.843 369.287 116.843C367.803 116.843 366.6 117.911 366.6 119.229C366.6 120.546 367.803 121.615 369.287 121.615Z" fill="#1D262D"/>
<path d="M386.367 119.229C386.367 120.543 385.167 121.615 383.68 121.615C382.2 121.615 380.993 120.549 380.993 119.229C380.993 117.909 382.193 116.843 383.68 116.843C385.167 116.843 386.367 117.915 386.367 119.229Z" stroke="#69779B" stroke-miterlimit="10"/>
<path d="M369.287 131.495C370.771 131.495 371.973 130.427 371.973 129.109C371.973 127.792 370.771 126.724 369.287 126.724C367.803 126.724 366.6 127.792 366.6 129.109C366.6 130.427 367.803 131.495 369.287 131.495Z" fill="#1D262D"/>
<path d="M386.367 129.109C386.367 130.424 385.167 131.495 383.68 131.495C382.2 131.495 380.993 130.429 380.993 129.109C380.993 127.795 382.193 126.724 383.68 126.724C385.167 126.724 386.367 127.789 386.367 129.109Z" stroke="#69779B" stroke-miterlimit="10"/>
<path d="M371.967 138.99C371.967 140.304 370.767 141.376 369.28 141.376C367.8 141.376 366.594 140.31 366.594 138.99C366.594 137.676 367.793 136.604 369.28 136.604C370.767 136.604 371.967 137.67 371.967 138.99Z" fill="#1D262D"/>
<path d="M386.367 138.99C386.367 140.304 385.167 141.376 383.68 141.376C382.2 141.376 380.993 140.31 380.993 138.99C380.993 137.676 382.193 136.604 383.68 136.604C385.167 136.604 386.367 137.67 386.367 138.99Z" stroke="#69779B" stroke-miterlimit="10"/>
<path d="M371.967 148.864C371.967 150.179 370.767 151.25 369.28 151.25C367.8 151.25 366.594 150.184 366.594 148.864C366.594 147.55 367.793 146.479 369.28 146.479C370.767 146.479 371.967 147.55 371.967 148.864Z" fill="#69779B"/>
<path d="M386.367 148.864C386.367 150.179 385.167 151.25 383.68 151.25C382.2 151.25 380.993 150.184 380.993 148.864C380.993 147.55 382.193 146.479 383.68 146.479C385.167 146.479 386.367 147.55 386.367 148.864Z" stroke="#69779B" stroke-miterlimit="10"/>
<path d="M371.967 158.745C371.967 160.059 370.767 161.131 369.28 161.131C367.8 161.131 366.594 160.065 366.594 158.745C366.594 157.431 367.793 156.359 369.28 156.359C370.767 156.359 371.967 157.425 371.967 158.745Z" fill="#69779B"/>
<path d="M386.367 158.745C386.367 160.059 385.167 161.131 383.68 161.131C382.2 161.131 380.993 160.065 380.993 158.745C380.993 157.431 382.193 156.359 383.68 156.359C385.167 156.359 386.367 157.425 386.367 158.745Z" fill="#69779B"/>
<path d="M494 5.84302H406.333V23.9523H494V5.84302Z" stroke="#1D262D" stroke-width="2" stroke-miterlimit="10"/>
<path d="M500 0H412.333V18.1093H500V0Z" fill="#69779B"/>
<path d="M381.316 176.001L376.484 171.711L371.652 176.001L376.484 180.292L381.316 176.001Z" fill="#1D262D"/>
<path d="M381.315 190.854L376.483 186.563L371.651 190.854L376.483 195.145L381.315 190.854Z" fill="#8BD2BD"/>
<path d="M381.313 205.707L376.481 201.416L371.649 205.707L376.481 209.997L381.313 205.707Z" fill="#8BD2BD"/>
<path d="M381.316 220.555L376.484 216.264L371.653 220.555L376.484 224.846L381.316 220.555Z" fill="#1D262D"/>
<path d="M21.3134 78.4814C35.9601 81.4355 46.8868 93.0683 46.8868 106.963C46.8868 121.988 34.1134 134.36 17.6868 135.988" stroke="#1D262D" stroke-width="3" stroke-miterlimit="10" stroke-linecap="round"/>
<path d="M22.8669 69.8915C42.1803 73.5204 56.667 88.7408 56.667 106.968C56.667 126.558 39.927 142.678 18.4536 144.661" stroke="#1D262D" stroke-width="3" stroke-miterlimit="10" stroke-linecap="round"/>
<path d="M20.0134 87.0122C29.9401 89.3684 37.2535 97.4077 37.2535 106.969C37.2535 117.459 28.4468 126.126 17.0334 127.446" stroke="#1D262D" stroke-width="3" stroke-miterlimit="10" stroke-linecap="round"/>
<path d="M18.6735 95.5547C23.9202 97.2537 27.6669 101.717 27.6669 106.968C27.6669 112.954 22.7869 117.926 16.3735 118.927" stroke="#1D262D" stroke-width="3" stroke-miterlimit="10" stroke-linecap="round"/>
<path d="M87.9995 74.3907H103.48V88.137L87.9995 74.3907Z" fill="#69779B"/>
<path d="M87.9995 101.978H103.48V115.73L87.9995 101.978Z" fill="#69779B"/>
<path d="M87.9995 88.2258H103.48V101.978L87.9995 88.2258Z" fill="#1D262D"/>
<path d="M263.333 49.136H278.813V62.8822L263.333 49.136Z" fill="#69779B"/>
<path d="M263.333 76.7231H278.813V90.4753L263.333 76.7231Z" fill="#69779B"/>
<path d="M263.333 62.9709H278.813V76.7231L263.333 62.9709Z" fill="#1D262D"/>
<path d="M138.94 123.55L173.233 93.092" stroke="#1D262D" stroke-width="2" stroke-miterlimit="10"/>
<path d="M147.413 123.55L181.713 93.092" stroke="#1D262D" stroke-width="2" stroke-miterlimit="10"/>
<path d="M155.893 123.55L190.186 93.092" stroke="#8BD2BD" stroke-width="2" stroke-miterlimit="10"/>
<path d="M164.367 123.55L198.667 93.092" stroke="#69779B" stroke-width="2" stroke-miterlimit="10"/>
<path d="M306.167 216.293V284.343" stroke="#8BD2BD" stroke-width="2" stroke-miterlimit="10"/>
<path d="M312.333 207.75V284.343" stroke="#69779B" stroke-width="2" stroke-miterlimit="10"/>
<path d="M318.5 199.214V284.343" stroke="#1D262D" stroke-width="2" stroke-miterlimit="10"/>
<path d="M324.667 190.677V284.343" stroke="#1D262D" stroke-width="2" stroke-miterlimit="10"/>
<path d="M441.427 240.749C441.427 242.537 439.793 243.987 437.78 243.987C435.767 243.987 434.133 242.537 434.133 240.749C434.133 238.961 435.767 237.51 437.78 237.51C439.793 237.51 441.427 238.961 441.427 240.749Z" fill="#1D262D"/>
<path d="M452.754 250.807C452.754 252.595 451.12 254.045 449.107 254.045C447.094 254.045 445.46 252.595 445.46 250.807C445.46 249.019 447.094 247.569 449.107 247.569C451.12 247.569 452.754 249.019 452.754 250.807Z" fill="#1D262D"/>
<path d="M464.08 260.865C464.08 262.653 462.447 264.103 460.434 264.103C458.42 264.103 456.787 262.653 456.787 260.865C456.787 259.077 458.42 257.627 460.434 257.627C462.454 257.627 464.08 259.077 464.08 260.865Z" fill="#8BD2BD"/>
<path d="M475.413 270.929C475.413 272.717 473.78 274.167 471.767 274.167C469.753 274.167 468.12 272.717 468.12 270.929C468.12 269.141 469.753 267.691 471.767 267.691C473.78 267.691 475.413 269.135 475.413 270.929Z" fill="#69779B"/>
<path d="M35.9 177.6H0V198.912H35.9V177.6Z" fill="#8BD2BD"/>
<path d="M350 0H301.333V7.104H350V0Z" fill="#8BD2BD"/>
<path d="M350 17.76H301.333V24.864H350V17.76Z" fill="#8BD2BD"/>
<path d="M318.354 159.526C325.52 159.526 331.334 154.364 331.334 148C331.334 141.636 325.52 136.474 318.354 136.474V159.526Z" fill="#8BD2BD"/>
<path d="M95.7395 159.319H87.6528V166.5H95.7395V159.319Z" stroke="#8BD2BD" stroke-width="2" stroke-miterlimit="10"/>
<path d="M110.699 159.319H102.613V166.5H110.699V159.319Z" stroke="#8BD2BD" stroke-width="2" stroke-miterlimit="10"/>
<path d="M125.653 159.319H117.566V166.5H125.653V159.319Z" stroke="#8BD2BD" stroke-width="2" stroke-miterlimit="10"/>
<path d="M140.613 159.319H132.526V166.5H140.613V159.319Z" stroke="#8BD2BD" stroke-width="2" stroke-miterlimit="10"/>
<path d="M155.566 159.319H147.479V166.5H155.566V159.319Z" stroke="#8BD2BD" stroke-width="2" stroke-miterlimit="10"/>
<path d="M170.52 159.319H162.433V166.5H170.52V159.319Z" stroke="#8BD2BD" stroke-width="2" stroke-miterlimit="10"/>
<path d="M185.48 159.319H177.393V166.5H185.48V159.319Z" stroke="#8BD2BD" stroke-width="2" stroke-miterlimit="10"/>
<path d="M95.7395 171.035H87.6528V178.216H95.7395V171.035Z" stroke="#8BD2BD" stroke-width="2" stroke-miterlimit="10"/>
<path d="M110.699 171.035H102.613V178.216H110.699V171.035Z" stroke="#8BD2BD" stroke-width="2" stroke-miterlimit="10"/>
<path d="M125.653 171.035H117.566V178.216H125.653V171.035Z" stroke="#8BD2BD" stroke-width="2" stroke-miterlimit="10"/>
<path d="M140.613 171.035H132.526V178.216H140.613V171.035Z" stroke="#8BD2BD" stroke-width="2" stroke-miterlimit="10"/>
<path d="M155.566 171.035H147.479V178.216H155.566V171.035Z" stroke="#8BD2BD" stroke-width="2" stroke-miterlimit="10"/>
<path d="M170.52 171.035H162.433V178.216H170.52V171.035Z" stroke="#8BD2BD" stroke-width="2" stroke-miterlimit="10"/>
<path d="M185.48 171.035H177.393V178.216H185.48V171.035Z" stroke="#8BD2BD" stroke-width="2" stroke-miterlimit="10"/>
<path d="M87.6528 153.399H95.7395" stroke="#8BD2BD" stroke-width="2" stroke-miterlimit="10" stroke-linecap="square"/>
<path d="M102.613 153.399H110.693" stroke="#8BD2BD" stroke-width="2" stroke-miterlimit="10" stroke-linecap="square"/>
<path d="M446.479 116.192V184.242" stroke="#8BD2BD" stroke-width="2" stroke-miterlimit="10"/>
<path d="M452.993 107.649V184.242" stroke="#69779B" stroke-width="2" stroke-miterlimit="10"/>
<path d="M459.507 99.1127V184.242" stroke="#1D262D" stroke-width="2" stroke-miterlimit="10"/>
<path d="M466.021 90.576V184.242" stroke="#1D262D" stroke-width="2" stroke-miterlimit="10"/>
<path d="M291.641 58.016H283.099V65.197H291.641V58.016Z" stroke="#8BD2BD" stroke-width="2" stroke-miterlimit="10"/>
<path d="M307.444 58.016H298.901V65.197H307.444V58.016Z" stroke="#8BD2BD" stroke-width="2" stroke-miterlimit="10"/>
<path d="M323.24 58.016H314.697V65.197H323.24V58.016Z" stroke="#8BD2BD" stroke-width="2" stroke-miterlimit="10"/>
<path d="M339.042 58.016H330.5V65.197H339.042V58.016Z" stroke="#8BD2BD" stroke-width="2" stroke-miterlimit="10"/>
<path d="M354.838 58.016H346.296V65.197H354.838V58.016Z" stroke="#8BD2BD" stroke-width="2" stroke-miterlimit="10"/>
<path d="M370.634 58.016H362.092V65.197H370.634V58.016Z" stroke="#8BD2BD" stroke-width="2" stroke-miterlimit="10"/>
<path d="M386.437 58.016H377.895V65.197H386.437V58.016Z" stroke="#8BD2BD" stroke-width="2" stroke-miterlimit="10"/>
<path d="M291.641 69.7317H283.099V76.9127H291.641V69.7317Z" stroke="#8BD2BD" stroke-width="2" stroke-miterlimit="10"/>
<path d="M307.444 69.7317H298.901V76.9127H307.444V69.7317Z" stroke="#8BD2BD" stroke-width="2" stroke-miterlimit="10"/>
<path d="M323.24 69.7317H314.697V76.9127H323.24V69.7317Z" stroke="#8BD2BD" stroke-width="2" stroke-miterlimit="10"/>
<path d="M339.042 69.7317H330.5V76.9127H339.042V69.7317Z" stroke="#8BD2BD" stroke-width="2" stroke-miterlimit="10"/>
<path d="M354.838 69.7317H346.296V76.9127H354.838V69.7317Z" stroke="#8BD2BD" stroke-width="2" stroke-miterlimit="10"/>
<path d="M370.634 69.7317H362.092V76.9127H370.634V69.7317Z" stroke="#8BD2BD" stroke-width="2" stroke-miterlimit="10"/>
<path d="M386.437 69.7317H377.895V76.9127H386.437V69.7317Z" stroke="#8BD2BD" stroke-width="2" stroke-miterlimit="10"/>
<path d="M283.099 52.0959H291.641" stroke="#8BD2BD" stroke-width="2" stroke-miterlimit="10" stroke-linecap="square"/>
<path d="M298.901 52.0959H307.437" stroke="#8BD2BD" stroke-width="2" stroke-miterlimit="10" stroke-linecap="square"/>
<path d="M202.817 258.112L212.556 267.785L222.296 258.112L232.035 267.785L241.775 258.112L251.521 267.785L261.268 258.112" stroke="#1D262D" stroke-width="4" stroke-miterlimit="10"/>
<path d="M407.042 60.384L416.782 70.0573L426.521 60.384L436.261 70.0573L446 60.384L455.746 70.0573L465.493 60.384" stroke="#1D262D" stroke-width="4" stroke-miterlimit="10"/>
<rect width="500" height="296" fill="#454545" fill-opacity="0.44"/>
</g>
<defs>
<clipPath id="clip0_334_2537">
<rect width="500" height="296" fill="white"/>
</clipPath>
</defs>
</svg>
