<svg width="280" height="169" viewBox="0 0 280 169" fill="none" xmlns="http://www.w3.org/2000/svg">
<g clip-path="url(#clip0_223_544)">
<path d="M138.56 28.7302C143.252 28.7302 147.055 25.2244 147.055 20.8998C147.055 16.5752 143.252 13.0694 138.56 13.0694C133.869 13.0694 130.066 16.5752 130.066 20.8998C130.066 25.2244 133.869 28.7302 138.56 28.7302Z" fill="#FD6584"/>
<path d="M157.571 17.192C157.331 16.4679 156.867 15.8242 156.236 15.3401C155.605 14.8561 154.833 14.5528 154.017 14.4676C153.998 14.4661 153.979 14.4661 153.96 14.4676C153.937 14.461 153.914 14.4561 153.89 14.4529C151.046 14.1127 147.884 14.9397 145.756 16.7404C144.966 17.3983 144.334 18.2015 143.901 19.0982C143.507 18.6014 142.987 18.2008 142.386 17.931C141.786 17.6612 141.123 17.5303 140.456 17.5498C139.595 17.6022 138.773 17.8982 138.101 18.3973C137.429 18.8964 136.941 19.5743 136.702 20.3387C136.676 20.4321 136.683 20.5308 136.723 20.6201C136.762 20.7094 136.832 20.7845 136.922 20.8343C137.177 21.0361 137.482 21.1788 137.809 21.2508C138.512 21.3886 139.222 21.5147 139.931 21.6291C141.318 21.852 142.712 22.0328 144.114 22.1716C145.04 22.2625 145.968 22.3349 146.898 22.3886C148.819 22.5001 150.75 22.5265 152.675 22.4707C153.629 22.4414 154.546 22.4121 155.417 22.025C156.052 21.737 156.595 21.3014 156.992 20.761C157.366 20.2413 157.611 19.6523 157.711 19.0357C157.811 18.4191 157.763 17.7898 157.571 17.192Z" fill="#E6E6E6"/>
<path d="M140.096 28.6C140.08 28.2719 140.02 27.9468 139.918 27.6322C139.678 26.9082 139.213 26.2647 138.581 25.7807C137.949 25.2967 137.178 24.9933 136.362 24.9078C136.344 24.9063 136.326 24.9063 136.308 24.9078C136.284 24.9015 136.259 24.8966 136.234 24.8931C134.66 24.7154 133.063 24.8667 131.561 25.3359C129.252 26.0486 127.225 27.4856 126.248 29.5384C125.854 29.0413 125.333 28.6405 124.732 28.3707C124.131 28.1009 123.468 27.9702 122.8 27.99C121.939 28.0424 121.117 28.3384 120.445 28.8375C119.773 29.3366 119.285 30.0146 119.046 30.7789C119.021 30.8723 119.029 30.9705 119.069 31.0595C119.108 31.1486 119.177 31.2238 119.266 31.2745C119.522 31.4757 119.826 31.6184 120.153 31.691C120.859 31.8288 121.566 31.9549 122.278 32.0693C123.665 32.2922 125.059 32.473 126.458 32.6118C129.302 32.8933 132.164 32.9932 135.022 32.9109C135.974 32.8816 136.893 32.8523 137.765 32.4652C138.399 32.1771 138.94 31.7414 139.336 31.2012C139.894 30.4351 140.161 29.5206 140.096 28.6V28.6Z" fill="#E6E6E6"/>
<path d="M250.724 123.614C250.846 128.953 250.047 134.276 248.356 139.384C248.297 139.569 248.226 139.755 248.155 139.94H213.303C213.801 137.679 214.592 135.48 215.659 133.393C218.559 127.718 223.294 122.861 227.97 118.038C234.411 111.391 240.697 104.8 241.691 96.1566C244.244 99.744 246.281 103.621 247.752 107.692C245.951 108.307 244.298 109.241 242.887 110.442C242.496 110.78 242.082 111.271 242.283 111.741C242.472 112.133 242.993 112.265 243.455 112.352C244.568 112.548 245.681 112.745 246.793 112.93C247.669 113.094 248.557 113.247 249.445 113.399C250.226 116.759 250.654 120.179 250.724 123.614V123.614Z" fill="#F2F2F2"/>
<path d="M280 120.078C274.412 123.21 270.861 128.056 267.96 133.48C265.436 134.01 263.106 135.139 261.201 136.754C260.798 137.092 260.384 137.583 260.597 138.052C260.775 138.445 261.307 138.576 261.769 138.664C262.87 138.86 263.995 139.056 265.095 139.242C264.989 139.471 264.882 139.711 264.776 139.94H227.84C229.517 137.856 231.374 135.9 233.392 134.091C233.83 133.687 234.28 133.305 234.742 132.912C239.45 128.99 244.857 125.844 250.724 123.614C259.967 120.052 270.074 118.832 280 120.078Z" fill="#F2F2F2"/>
<path d="M233.996 139.94H201.109C200.93 137.513 200.946 135.076 201.157 132.65C202.471 117.667 211.314 103.392 224.656 94.7487C222.951 100.347 223.827 105.913 225.603 111.501C225.354 111.577 225.106 111.642 224.881 111.73C223.08 112.345 221.427 113.279 220.015 114.48C219.624 114.818 219.21 115.309 219.411 115.779C219.589 116.171 220.122 116.302 220.583 116.39C221.696 116.586 222.809 116.783 223.91 116.968C224.798 117.132 225.686 117.285 226.574 117.448C226.988 117.514 227.402 117.59 227.817 117.667C227.876 117.797 227.911 117.918 227.97 118.038C230.054 123.33 232.327 128.667 233.392 134.091C233.656 135.452 233.838 136.826 233.937 138.205C233.973 138.784 233.996 139.362 233.996 139.94Z" fill="#F2F2F2"/>
<path d="M54.7595 123.614C54.8815 128.953 54.0823 134.276 52.3918 139.384C52.3326 139.569 52.2615 139.755 52.1905 139.94H17.3384C17.8366 137.679 18.6276 135.48 19.6943 133.393C22.5946 127.718 27.33 122.861 32.0061 118.038C38.4462 111.391 44.7324 104.8 45.7268 96.1566C48.2795 99.744 50.3169 103.621 51.788 107.692C49.987 108.307 48.334 109.241 46.9225 110.442C46.5318 110.78 46.1174 111.271 46.3187 111.741C46.5081 112.133 47.029 112.265 47.4907 112.352C48.6035 112.548 49.7163 112.745 50.8291 112.93C51.7051 113.094 52.593 113.247 53.4809 113.399C54.2613 116.759 54.6894 120.179 54.7595 123.614V123.614Z" fill="#F2F2F2"/>
<path d="M84.0357 120.078C78.4479 123.21 74.8964 128.056 71.9961 133.48C69.4721 134.01 67.1421 135.139 65.2364 136.754C64.8338 137.092 64.4195 137.583 64.6326 138.052C64.8102 138.445 65.3429 138.576 65.8046 138.664C66.9055 138.86 68.0302 139.056 69.1312 139.242C69.0247 139.471 68.9181 139.711 68.8116 139.94H31.8759C33.5526 137.856 35.4094 135.9 37.4281 134.091C37.8661 133.687 38.316 133.305 38.7777 132.912C43.4861 128.99 48.8924 125.844 54.7595 123.614C64.0022 120.052 74.1095 118.832 84.0357 120.078V120.078Z" fill="#F2F2F2"/>
<path d="M38.0319 139.94H5.14494C4.96534 137.513 4.98119 135.076 5.19234 132.65C6.50638 117.667 15.3496 103.392 28.6914 94.7487C26.9867 100.347 27.8627 105.913 29.6385 111.501C29.3899 111.577 29.1413 111.642 28.9164 111.73C27.1153 112.345 25.4623 113.279 24.0508 114.48C23.6601 114.818 23.2458 115.309 23.447 115.779C23.6246 116.171 24.1573 116.302 24.619 116.39C25.7318 116.586 26.8446 116.783 27.9456 116.968C28.8335 117.132 29.7214 117.285 30.6092 117.448C31.0235 117.514 31.4379 117.59 31.8522 117.667C31.9114 117.797 31.9469 117.918 32.0061 118.038C34.0897 123.33 36.3626 128.667 37.4281 134.091C37.6918 135.452 37.8736 136.826 37.9727 138.205C38.0082 138.784 38.0319 139.362 38.0319 139.94Z" fill="#F2F2F2"/>
<path d="M160.465 127.212L189.85 129.617L190.165 129.643V14.0562C190.06 13.9887 189.955 13.9213 189.85 13.8538C183.726 9.90493 177.101 6.66083 170.123 4.1937L168.622 23.2852L168.485 25.033L166.999 43.9662L166.541 49.7904L160.519 126.538L160.465 127.212Z" fill="#E6E6E6"/>
<path d="M87.7958 11.9036C87.5859 12.0268 87.3759 12.1499 87.166 12.279V129.643L87.7958 129.591L116.863 127.212L116.809 126.538L110.787 49.7904L110.329 43.9662L108.843 25.033L108.706 23.2852L107.131 3.26404C100.341 5.434 93.8507 8.33384 87.7958 11.9036V11.9036Z" fill="#E6E6E6"/>
<path d="M87.166 12.279C86.7428 12.5312 86.3197 12.7893 85.903 13.0503V131.245C85.903 134.198 87.8022 136.673 90.3408 137.303C90.7557 137.407 91.1836 137.459 91.6133 137.459H186.033C186.461 137.459 186.888 137.407 187.302 137.303C188.245 137.062 189.101 136.59 189.777 135.937C191.066 134.666 191.771 132.984 191.743 131.245V15.106C191.221 14.7512 190.696 14.3993 190.165 14.0562C190.06 13.9887 189.955 13.9213 189.85 13.8538V131.245C189.851 131.625 189.802 132.004 189.704 132.374C189.255 134.119 187.776 135.397 186.033 135.397H91.6133C89.5073 135.397 87.7958 133.535 87.7958 131.245V11.9036C87.5859 12.0268 87.3759 12.1499 87.166 12.279Z" fill="#E6E6E6"/>
<path d="M190.796 23.2863H86.8486V25.0339H190.796V23.2863Z" fill="#E6E6E6"/>
<path d="M158.96 0.994168C158.33 0.850469 157.7 0.715566 157.064 0.589462V48.0425H158.96V0.994168Z" fill="#E6E6E6"/>
<path d="M120.582 0C119.949 0.108508 119.316 0.219949 118.686 0.340188V48.0425H120.582V0Z" fill="#E6E6E6"/>
<path d="M66.4688 134.4C66.4684 135.403 66.6768 136.396 67.0828 137.327C67.2387 137.688 67.4249 138.037 67.6395 138.371C67.9167 138.807 68.2385 139.217 68.6002 139.597C69.3994 140.436 70.3838 141.109 71.4876 141.57C72.5914 142.03 73.7892 142.269 75.0009 142.268H199.486C201.749 142.268 203.919 141.44 205.519 139.965C207.119 138.49 208.018 136.489 208.018 134.403C208.018 132.317 207.119 130.316 205.519 128.841C203.919 127.366 201.749 126.538 199.486 126.538H75.0009C72.7393 126.54 70.5709 127.369 68.9714 128.843C67.3719 130.317 66.4719 132.315 66.4688 134.4V134.4Z" fill="#E6E6E6"/>
<path d="M86.8486 49.7911L190.164 49.7911V43.9658L86.8486 43.9658V49.7911Z" fill="#E6E6E6"/>
<path d="M142.93 45.4221H134.083C134.083 44.5724 134.449 43.7575 135.101 43.1567C135.753 42.5558 136.637 42.2183 137.559 42.2183H139.454C139.911 42.2183 140.363 42.3012 140.784 42.4622C141.206 42.6232 141.589 42.8592 141.912 43.1567C142.235 43.4542 142.491 43.8074 142.665 44.1961C142.84 44.5848 142.93 45.0014 142.93 45.4221V45.4221H142.93Z" fill="#E6E6E6"/>
<path d="M0 138.893C2.76362 141.912 5.75279 144.748 8.94564 147.383H265.538C268.731 144.748 271.72 141.912 274.484 138.893H0Z" fill="#3F3D56"/>
<path d="M126.197 110.502V140.579H149.054V110.502C149.054 110.286 148.979 110.075 148.84 109.901C148.701 109.727 148.505 109.598 148.281 109.534C148.175 109.502 148.064 109.486 147.953 109.487H127.3C127.156 109.487 127.012 109.513 126.878 109.564C126.745 109.615 126.623 109.689 126.52 109.784C126.418 109.878 126.337 109.99 126.281 110.113C126.225 110.236 126.197 110.368 126.197 110.502V110.502ZM135.117 120.837C135.123 120.244 135.383 119.677 135.839 119.26C136.296 118.842 136.914 118.608 137.557 118.608C138.2 118.608 138.817 118.842 139.274 119.26C139.731 119.677 139.991 120.244 139.997 120.837V124.326C139.993 124.921 139.735 125.49 139.278 125.91C138.82 126.329 138.202 126.564 137.557 126.564C136.912 126.564 136.293 126.329 135.836 125.91C135.379 125.49 135.12 124.921 135.117 124.326V120.837Z" fill="#2F2E41"/>
<path d="M126.127 139.617V142.518C126.127 142.668 126.192 142.812 126.307 142.918C126.422 143.025 126.578 143.085 126.741 143.087H148.51C148.673 143.086 148.829 143.026 148.944 142.919C149.059 142.812 149.124 142.668 149.124 142.518V139.617H126.127Z" fill="#3F3D56"/>
<path d="M90.239 65.1868V120.103C90.2396 120.803 90.5415 121.474 91.0783 121.969C91.6151 122.464 92.343 122.742 93.1021 122.743H181.382C182.141 122.742 182.869 122.464 183.405 121.969C183.942 121.474 184.244 120.803 184.245 120.103V65.1868C184.243 64.4875 183.941 63.8175 183.404 63.3233C182.867 62.8292 182.14 62.5512 181.382 62.5503H93.1021C92.3436 62.5512 91.6164 62.8292 91.0798 63.3233C90.5432 63.8175 90.2408 64.4875 90.239 65.1868V65.1868Z" fill="#3F3D56"/>
<path d="M92.31 65.8701V119.426C92.3107 119.8 92.4722 120.158 92.759 120.423C93.0458 120.687 93.4346 120.836 93.8402 120.837H180.647C181.052 120.836 181.441 120.687 181.728 120.423C182.015 120.158 182.176 119.8 182.177 119.426V65.8701C182.177 65.4957 182.016 65.1366 181.729 64.8716C181.442 64.6066 181.053 64.4573 180.647 64.4565H93.8402C93.4341 64.4573 93.0449 64.6066 92.758 64.8716C92.4712 65.1366 92.3101 65.4957 92.31 65.8701V65.8701Z" fill="#406882"/>
<path d="M110.01 143.77C110.099 143.872 110.211 143.954 110.339 144.011C110.467 144.067 110.607 144.096 110.748 144.095H162.393C162.534 144.095 162.673 144.066 162.801 144.01C162.928 143.954 163.041 143.872 163.13 143.771C163.219 143.67 163.282 143.552 163.315 143.425C163.348 143.299 163.351 143.167 163.322 143.04L162.52 139.529C162.487 139.386 162.415 139.253 162.312 139.142C162.209 139.031 162.077 138.945 161.928 138.893C161.821 138.854 161.706 138.834 161.591 138.834H111.547C111.432 138.834 111.317 138.854 111.21 138.893C111.061 138.945 110.93 139.031 110.826 139.142C110.723 139.253 110.651 139.386 110.618 139.529L109.816 143.04C109.788 143.167 109.79 143.299 109.824 143.425C109.858 143.551 109.921 143.669 110.01 143.77Z" fill="#2F2E41"/>
<path d="M159.789 140.346H161.069C161.155 140.346 161.224 140.282 161.224 140.203V139.61C161.224 139.531 161.155 139.466 161.069 139.466H159.789C159.703 139.466 159.634 139.531 159.634 139.61V140.203C159.634 140.282 159.703 140.346 159.789 140.346Z" fill="#3F3D56"/>
<path d="M156.608 140.346H157.888C157.973 140.346 158.043 140.282 158.043 140.203V139.61C158.043 139.531 157.973 139.466 157.888 139.466H156.608C156.522 139.466 156.452 139.531 156.452 139.61V140.203C156.452 140.282 156.522 140.346 156.608 140.346Z" fill="#3F3D56"/>
<path d="M153.426 140.346H154.706C154.792 140.346 154.862 140.282 154.862 140.203V139.61C154.862 139.531 154.792 139.466 154.706 139.466H153.426C153.341 139.466 153.271 139.531 153.271 139.61V140.203C153.271 140.282 153.341 140.346 153.426 140.346Z" fill="#3F3D56"/>
<path d="M150.245 140.346H151.525C151.611 140.346 151.681 140.282 151.681 140.203V139.61C151.681 139.531 151.611 139.466 151.525 139.466H150.245C150.159 139.466 150.09 139.531 150.09 139.61V140.203C150.09 140.282 150.159 140.346 150.245 140.346Z" fill="#3F3D56"/>
<path d="M147.064 140.346H148.344C148.43 140.346 148.499 140.282 148.499 140.203V139.61C148.499 139.531 148.43 139.466 148.344 139.466H147.064C146.978 139.466 146.909 139.531 146.909 139.61V140.203C146.909 140.282 146.978 140.346 147.064 140.346Z" fill="#3F3D56"/>
<path d="M143.883 140.346H145.163C145.249 140.346 145.318 140.282 145.318 140.203V139.61C145.318 139.531 145.249 139.466 145.163 139.466H143.883C143.797 139.466 143.727 139.531 143.727 139.61V140.203C143.727 140.282 143.797 140.346 143.883 140.346Z" fill="#3F3D56"/>
<path d="M140.701 140.346H141.981C142.067 140.346 142.137 140.282 142.137 140.203V139.61C142.137 139.531 142.067 139.466 141.981 139.466H140.701C140.616 139.466 140.546 139.531 140.546 139.61V140.203C140.546 140.282 140.616 140.346 140.701 140.346Z" fill="#3F3D56"/>
<path d="M137.52 140.346H138.8C138.886 140.346 138.956 140.282 138.956 140.203V139.61C138.956 139.531 138.886 139.466 138.8 139.466H137.52C137.434 139.466 137.365 139.531 137.365 139.61V140.203C137.365 140.282 137.434 140.346 137.52 140.346Z" fill="#3F3D56"/>
<path d="M134.339 140.346H135.619C135.705 140.346 135.774 140.282 135.774 140.203V139.61C135.774 139.531 135.705 139.466 135.619 139.466H134.339C134.253 139.466 134.184 139.531 134.184 139.61V140.203C134.184 140.282 134.253 140.346 134.339 140.346Z" fill="#3F3D56"/>
<path d="M131.158 140.346H132.438C132.524 140.346 132.593 140.282 132.593 140.203V139.61C132.593 139.531 132.524 139.466 132.438 139.466H131.158C131.072 139.466 131.002 139.531 131.002 139.61V140.203C131.002 140.282 131.072 140.346 131.158 140.346Z" fill="#3F3D56"/>
<path d="M127.977 140.346H129.257C129.342 140.346 129.412 140.282 129.412 140.203V139.61C129.412 139.531 129.342 139.466 129.257 139.466H127.977C127.891 139.466 127.821 139.531 127.821 139.61V140.203C127.821 140.282 127.891 140.346 127.977 140.346Z" fill="#3F3D56"/>
<path d="M124.795 140.346H126.075C126.161 140.346 126.231 140.282 126.231 140.203V139.61C126.231 139.531 126.161 139.466 126.075 139.466H124.795C124.71 139.466 124.64 139.531 124.64 139.61V140.203C124.64 140.282 124.71 140.346 124.795 140.346Z" fill="#3F3D56"/>
<path d="M121.614 140.346H122.894C122.98 140.346 123.049 140.282 123.049 140.203V139.61C123.049 139.531 122.98 139.466 122.894 139.466H121.614C121.528 139.466 121.459 139.531 121.459 139.61V140.203C121.459 140.282 121.528 140.346 121.614 140.346Z" fill="#3F3D56"/>
<path d="M118.433 140.346H119.713C119.799 140.346 119.868 140.282 119.868 140.203V139.61C119.868 139.531 119.799 139.466 119.713 139.466H118.433C118.347 139.466 118.278 139.531 118.278 139.61V140.203C118.278 140.282 118.347 140.346 118.433 140.346Z" fill="#3F3D56"/>
<path d="M115.252 140.346H116.532C116.617 140.346 116.687 140.282 116.687 140.203V139.61C116.687 139.531 116.617 139.466 116.532 139.466H115.252C115.166 139.466 115.096 139.531 115.096 139.61V140.203C115.096 140.282 115.166 140.346 115.252 140.346Z" fill="#3F3D56"/>
<path d="M112.07 140.346H113.35C113.436 140.346 113.506 140.282 113.506 140.203V139.61C113.506 139.531 113.436 139.466 113.35 139.466H112.07C111.985 139.466 111.915 139.531 111.915 139.61V140.203C111.915 140.282 111.985 140.346 112.07 140.346Z" fill="#3F3D56"/>
<path d="M159.827 141.813H161.107C161.192 141.813 161.262 141.748 161.262 141.669V141.076C161.262 140.997 161.192 140.933 161.107 140.933H159.827C159.741 140.933 159.671 140.997 159.671 141.076V141.669C159.671 141.748 159.741 141.813 159.827 141.813Z" fill="#3F3D56"/>
<path d="M156.645 141.813H157.925C158.011 141.813 158.081 141.748 158.081 141.669V141.076C158.081 140.997 158.011 140.933 157.925 140.933H156.645C156.559 140.933 156.49 140.997 156.49 141.076V141.669C156.49 141.748 156.559 141.813 156.645 141.813Z" fill="#3F3D56"/>
<path d="M153.464 141.813H154.744C154.83 141.813 154.899 141.748 154.899 141.669V141.076C154.899 140.997 154.83 140.933 154.744 140.933H153.464C153.378 140.933 153.309 140.997 153.309 141.076V141.669C153.309 141.748 153.378 141.813 153.464 141.813Z" fill="#3F3D56"/>
<path d="M150.283 141.813H151.563C151.649 141.813 151.718 141.748 151.718 141.669V141.076C151.718 140.997 151.649 140.933 151.563 140.933H150.283C150.197 140.933 150.128 140.997 150.128 141.076V141.669C150.128 141.748 150.197 141.813 150.283 141.813Z" fill="#3F3D56"/>
<path d="M147.102 141.813H148.382C148.467 141.813 148.537 141.748 148.537 141.669V141.076C148.537 140.997 148.467 140.933 148.382 140.933H147.102C147.016 140.933 146.946 140.997 146.946 141.076V141.669C146.946 141.748 147.016 141.813 147.102 141.813Z" fill="#3F3D56"/>
<path d="M143.92 141.813H145.2C145.286 141.813 145.356 141.748 145.356 141.669V141.076C145.356 140.997 145.286 140.933 145.2 140.933H143.92C143.835 140.933 143.765 140.997 143.765 141.076V141.669C143.765 141.748 143.835 141.813 143.92 141.813Z" fill="#3F3D56"/>
<path d="M140.739 141.813H142.019C142.105 141.813 142.174 141.748 142.174 141.669V141.076C142.174 140.997 142.105 140.933 142.019 140.933H140.739C140.653 140.933 140.584 140.997 140.584 141.076V141.669C140.584 141.748 140.653 141.813 140.739 141.813Z" fill="#3F3D56"/>
<path d="M137.558 141.813H138.838C138.924 141.813 138.993 141.748 138.993 141.669V141.076C138.993 140.997 138.924 140.933 138.838 140.933H137.558C137.472 140.933 137.403 140.997 137.403 141.076V141.669C137.403 141.748 137.472 141.813 137.558 141.813Z" fill="#3F3D56"/>
<path d="M134.377 141.813H135.657C135.742 141.813 135.812 141.748 135.812 141.669V141.076C135.812 140.997 135.742 140.933 135.657 140.933H134.377C134.291 140.933 134.221 140.997 134.221 141.076V141.669C134.221 141.748 134.291 141.813 134.377 141.813Z" fill="#3F3D56"/>
<path d="M131.195 141.813H132.475C132.561 141.813 132.631 141.748 132.631 141.669V141.076C132.631 140.997 132.561 140.933 132.475 140.933H131.195C131.11 140.933 131.04 140.997 131.04 141.076V141.669C131.04 141.748 131.11 141.813 131.195 141.813Z" fill="#3F3D56"/>
<path d="M128.014 141.813H129.294C129.38 141.813 129.449 141.748 129.449 141.669V141.076C129.449 140.997 129.38 140.933 129.294 140.933H128.014C127.928 140.933 127.859 140.997 127.859 141.076V141.669C127.859 141.748 127.928 141.813 128.014 141.813Z" fill="#3F3D56"/>
<path d="M124.833 141.813H126.113C126.199 141.813 126.268 141.748 126.268 141.669V141.076C126.268 140.997 126.199 140.933 126.113 140.933H124.833C124.747 140.933 124.678 140.997 124.678 141.076V141.669C124.678 141.748 124.747 141.813 124.833 141.813Z" fill="#3F3D56"/>
<path d="M121.652 141.813H122.932C123.017 141.813 123.087 141.748 123.087 141.669V141.076C123.087 140.997 123.017 140.933 122.932 140.933H121.652C121.566 140.933 121.496 140.997 121.496 141.076V141.669C121.496 141.748 121.566 141.813 121.652 141.813Z" fill="#3F3D56"/>
<path d="M118.47 141.813H119.75C119.836 141.813 119.906 141.748 119.906 141.669V141.076C119.906 140.997 119.836 140.933 119.75 140.933H118.47C118.385 140.933 118.315 140.997 118.315 141.076V141.669C118.315 141.748 118.385 141.813 118.47 141.813Z" fill="#3F3D56"/>
<path d="M115.289 141.813H116.569C116.655 141.813 116.725 141.748 116.725 141.669V141.076C116.725 140.997 116.655 140.933 116.569 140.933H115.289C115.203 140.933 115.134 140.997 115.134 141.076V141.669C115.134 141.748 115.203 141.813 115.289 141.813Z" fill="#3F3D56"/>
<path d="M112.108 141.813H113.388C113.474 141.813 113.543 141.748 113.543 141.669V141.076C113.543 140.997 113.474 140.933 113.388 140.933H112.108C112.022 140.933 111.953 140.997 111.953 141.076V141.669C111.953 141.748 112.022 141.813 112.108 141.813Z" fill="#3F3D56"/>
<path d="M133.422 143.572H145.837C145.922 143.572 145.992 143.508 145.992 143.429V142.835C145.992 142.756 145.922 142.692 145.837 142.692H133.422C133.336 142.692 133.267 142.756 133.267 142.835V143.429C133.267 143.508 133.336 143.572 133.422 143.572Z" fill="#3F3D56"/>
<path d="M98.2023 71.8341H179.427C179.511 71.8324 179.592 71.8003 179.651 71.7446C179.71 71.6889 179.743 71.6142 179.743 71.5363C179.743 71.4585 179.71 71.3837 179.651 71.328C179.592 71.2724 179.511 71.2403 179.427 71.2386H98.2023C98.1178 71.2403 98.0375 71.2724 97.9784 71.328C97.9194 71.3837 97.8863 71.4585 97.8863 71.5363C97.8863 71.6142 97.9194 71.6889 97.9784 71.7446C98.0375 71.8003 98.1178 71.8324 98.2023 71.8341V71.8341Z" fill="#3F3D56"/>
<path d="M173.898 69.7182C174.943 69.7182 175.791 68.9195 175.791 67.9343C175.791 66.9491 174.943 66.1504 173.898 66.1504C172.852 66.1504 172.005 66.9491 172.005 67.9343C172.005 68.9195 172.852 69.7182 173.898 69.7182Z" fill="#3F3D56"/>
<path d="M167.358 69.7182C168.404 69.7182 169.251 68.9195 169.251 67.9343C169.251 66.9491 168.404 66.1504 167.358 66.1504C166.313 66.1504 165.465 66.9491 165.465 67.9343C165.465 68.9195 166.313 69.7182 167.358 69.7182Z" fill="#3F3D56"/>
<path d="M160.819 69.7182C161.864 69.7182 162.712 68.9195 162.712 67.9343C162.712 66.9491 161.864 66.1504 160.819 66.1504C159.773 66.1504 158.926 66.9491 158.926 67.9343C158.926 68.9195 159.773 69.7182 160.819 69.7182Z" fill="#3F3D56"/>
<path d="M101.793 66.917C101.793 66.9592 101.802 67.001 101.819 67.04C101.836 67.0791 101.862 67.1146 101.894 67.1445C101.926 67.1745 101.965 67.1983 102.007 67.2146C102.049 67.2309 102.094 67.2394 102.14 67.2396H106.785C106.876 67.2376 106.964 67.2026 107.028 67.1421C107.092 67.0815 107.128 67.0002 107.128 66.9156C107.128 66.8309 107.092 66.7496 107.028 66.689C106.964 66.6285 106.876 66.5935 106.785 66.5915H102.14C102.047 66.5925 101.959 66.6273 101.894 66.6883C101.829 66.7493 101.793 66.8315 101.793 66.917V66.917Z" fill="#3F3D56"/>
<path d="M101.793 68.1341C101.793 68.1762 101.802 68.218 101.819 68.2571C101.836 68.2961 101.862 68.3316 101.894 68.3616C101.926 68.3915 101.965 68.4154 102.007 68.4317C102.049 68.448 102.094 68.4565 102.14 68.4567H106.785C106.877 68.4548 106.964 68.4198 107.028 68.3593C107.093 68.2987 107.128 68.2173 107.128 68.1326C107.128 68.0479 107.093 67.9665 107.028 67.9059C106.964 67.8454 106.877 67.8104 106.785 67.8085H102.14C102.047 67.8096 101.959 67.8444 101.894 67.9054C101.829 67.9664 101.793 68.0486 101.793 68.1341V68.1341Z" fill="#3F3D56"/>
<path d="M101.793 69.3482C101.793 69.4337 101.829 69.5159 101.894 69.5769C101.959 69.6379 102.047 69.6727 102.14 69.6737H106.785C106.876 69.6717 106.964 69.6367 107.028 69.5762C107.092 69.5156 107.128 69.4343 107.128 69.3497C107.128 69.265 107.092 69.1837 107.028 69.1231C106.964 69.0626 106.876 69.0276 106.785 69.0256H102.14C102.094 69.0258 102.049 69.0343 102.007 69.0506C101.965 69.0669 101.926 69.0907 101.894 69.1207C101.862 69.1506 101.836 69.1861 101.819 69.2252C101.802 69.2642 101.793 69.306 101.793 69.3482V69.3482Z" fill="#3F3D56"/>
<path d="M103.229 78.7541H101.56C101.054 78.7541 100.644 79.1323 100.644 79.5987C100.644 80.0652 101.054 80.4433 101.56 80.4433H103.229C103.735 80.4433 104.145 80.0652 104.145 79.5987C104.145 79.1323 103.735 78.7541 103.229 78.7541Z" fill="#E6E6E6"/>
<path d="M122.316 78.7541H120.647C120.141 78.7541 119.731 79.1323 119.731 79.5987C119.731 80.0652 120.141 80.4433 120.647 80.4433H122.316C122.822 80.4433 123.232 80.0652 123.232 79.5987C123.232 79.1323 122.822 78.7541 122.316 78.7541Z" fill="#E6E6E6"/>
<path d="M127.724 78.7541H126.055C125.549 78.7541 125.139 79.1323 125.139 79.5987C125.139 80.0652 125.549 80.4433 126.055 80.4433H127.724C128.23 80.4433 128.64 80.0652 128.64 79.5987C128.64 79.1323 128.23 78.7541 127.724 78.7541Z" fill="#E6E6E6"/>
<path d="M117.124 78.6133H106.752C106.246 78.6133 105.835 78.9915 105.835 79.4579C105.835 79.9244 106.246 80.3025 106.752 80.3025H117.124C117.63 80.3025 118.04 79.9244 118.04 79.4579C118.04 78.9915 117.63 78.6133 117.124 78.6133Z" fill="#E6E6E6"/>
<path d="M142.574 78.6133H132.202C131.696 78.6133 131.285 78.9915 131.285 79.4579C131.285 79.9244 131.696 80.3025 132.202 80.3025H142.574C143.08 80.3025 143.49 79.9244 143.49 79.4579C143.49 78.9915 143.08 78.6133 142.574 78.6133Z" fill="#E6E6E6"/>
<path d="M108.319 82.5666H106.65C106.144 82.5666 105.734 82.9447 105.734 83.4111C105.734 83.8776 106.144 84.2557 106.65 84.2557H108.319C108.825 84.2557 109.235 83.8776 109.235 83.4111C109.235 82.9447 108.825 82.5666 108.319 82.5666Z" fill="#E6E6E6"/>
<path d="M127.406 82.5666H125.737C125.231 82.5666 124.821 82.9447 124.821 83.4111C124.821 83.8776 125.231 84.2557 125.737 84.2557H127.406C127.912 84.2557 128.322 83.8776 128.322 83.4111C128.322 82.9447 127.912 82.5666 127.406 82.5666Z" fill="#E6E6E6"/>
<path d="M132.814 82.5666H131.145C130.639 82.5666 130.229 82.9447 130.229 83.4111C130.229 83.8776 130.639 84.2557 131.145 84.2557H132.814C133.32 84.2557 133.73 83.8776 133.73 83.4111C133.73 82.9447 133.32 82.5666 132.814 82.5666Z" fill="#E6E6E6"/>
<path d="M122.214 82.4258H111.842C111.336 82.4258 110.925 82.8039 110.925 83.2703C110.925 83.7368 111.336 84.1149 111.842 84.1149H122.214C122.72 84.1149 123.13 83.7368 123.13 83.2703C123.13 82.8039 122.72 82.4258 122.214 82.4258Z" fill="#E6E6E6"/>
<path d="M147.664 82.4258H137.292C136.786 82.4258 136.375 82.8039 136.375 83.2703C136.375 83.7368 136.786 84.1149 137.292 84.1149H147.664C148.17 84.1149 148.58 83.7368 148.58 83.2703C148.58 82.8039 148.17 82.4258 147.664 82.4258Z" fill="#E6E6E6"/>
<path d="M113.409 86.379H111.74C111.234 86.379 110.824 86.7571 110.824 87.2236C110.824 87.69 111.234 88.0682 111.74 88.0682H113.409C113.915 88.0682 114.325 87.69 114.325 87.2236C114.325 86.7571 113.915 86.379 113.409 86.379Z" fill="#E6E6E6"/>
<path d="M132.496 86.379H130.827C130.321 86.379 129.911 86.7571 129.911 87.2236C129.911 87.69 130.321 88.0682 130.827 88.0682H132.496C133.002 88.0682 133.412 87.69 133.412 87.2236C133.412 86.7571 133.002 86.379 132.496 86.379Z" fill="#E6E6E6"/>
<path d="M137.904 86.379H136.235C135.729 86.379 135.319 86.7571 135.319 87.2236C135.319 87.69 135.729 88.0682 136.235 88.0682H137.904C138.41 88.0682 138.82 87.69 138.82 87.2236C138.82 86.7571 138.41 86.379 137.904 86.379Z" fill="#E6E6E6"/>
<path d="M127.304 86.2382H116.932C116.426 86.2382 116.015 86.6163 116.015 87.0828C116.015 87.5492 116.426 87.9274 116.932 87.9274H127.304C127.81 87.9274 128.22 87.5492 128.22 87.0828C128.22 86.6163 127.81 86.2382 127.304 86.2382Z" fill="#E6E6E6"/>
<path d="M152.754 86.2382H142.381C141.875 86.2382 141.465 86.6163 141.465 87.0828C141.465 87.5492 141.875 87.9274 142.381 87.9274H152.754C153.26 87.9274 153.67 87.5492 153.67 87.0828C153.67 86.6163 153.26 86.2382 152.754 86.2382Z" fill="#E6E6E6"/>
<path d="M118.499 90.1914H116.83C116.324 90.1914 115.914 90.5696 115.914 91.036C115.914 91.5025 116.324 91.8806 116.83 91.8806H118.499C119.005 91.8806 119.415 91.5025 119.415 91.036C119.415 90.5696 119.005 90.1914 118.499 90.1914Z" fill="#E6E6E6"/>
<path d="M137.586 90.1914H135.917C135.411 90.1914 135.001 90.5696 135.001 91.036C135.001 91.5025 135.411 91.8806 135.917 91.8806H137.586C138.092 91.8806 138.502 91.5025 138.502 91.036C138.502 90.5696 138.092 90.1914 137.586 90.1914Z" fill="#E6E6E6"/>
<path d="M142.994 90.1914H141.325C140.819 90.1914 140.409 90.5696 140.409 91.036C140.409 91.5025 140.819 91.8806 141.325 91.8806H142.994C143.5 91.8806 143.91 91.5025 143.91 91.036C143.91 90.5696 143.5 90.1914 142.994 90.1914Z" fill="#E6E6E6"/>
<path d="M132.394 90.0506H122.022C121.516 90.0506 121.105 90.4288 121.105 90.8952C121.105 91.3617 121.516 91.7398 122.022 91.7398H132.394C132.9 91.7398 133.31 91.3617 133.31 90.8952C133.31 90.4288 132.9 90.0506 132.394 90.0506Z" fill="#E6E6E6"/>
<path d="M122.316 105.351H120.647C120.141 105.351 119.731 105.729 119.731 106.196C119.731 106.662 120.141 107.04 120.647 107.04H122.316C122.822 107.04 123.232 106.662 123.232 106.196C123.232 105.729 122.822 105.351 122.316 105.351Z" fill="#E6E6E6"/>
<path d="M127.724 105.351H126.055C125.549 105.351 125.139 105.729 125.139 106.196C125.139 106.662 125.549 107.04 126.055 107.04H127.724C128.23 107.04 128.64 106.662 128.64 106.196C128.64 105.729 128.23 105.351 127.724 105.351Z" fill="#E6E6E6"/>
<path d="M142.574 105.492H132.202C131.696 105.492 131.285 105.87 131.285 106.337C131.285 106.803 131.696 107.181 132.202 107.181H142.574C143.08 107.181 143.49 106.803 143.49 106.337C143.49 105.87 143.08 105.492 142.574 105.492Z" fill="#E6E6E6"/>
<path d="M103.229 105.351H101.56C101.054 105.351 100.644 105.729 100.644 106.196C100.644 106.662 101.054 107.04 101.56 107.04H103.229C103.735 107.04 104.145 106.662 104.145 106.196C104.145 105.729 103.735 105.351 103.229 105.351Z" fill="#E6E6E6"/>
<path d="M117.124 105.492H106.752C106.246 105.492 105.835 105.87 105.835 106.337C105.835 106.803 106.246 107.181 106.752 107.181H117.124C117.63 107.181 118.04 106.803 118.04 106.337C118.04 105.87 117.63 105.492 117.124 105.492Z" fill="#E6E6E6"/>
<path d="M108.319 101.539H106.65C106.144 101.539 105.734 101.917 105.734 102.383C105.734 102.85 106.144 103.228 106.65 103.228H108.319C108.825 103.228 109.235 102.85 109.235 102.383C109.235 101.917 108.825 101.539 108.319 101.539Z" fill="#E6E6E6"/>
<path d="M127.406 101.539H125.737C125.231 101.539 124.821 101.917 124.821 102.383C124.821 102.85 125.231 103.228 125.737 103.228H127.406C127.912 103.228 128.322 102.85 128.322 102.383C128.322 101.917 127.912 101.539 127.406 101.539Z" fill="#E6E6E6"/>
<path d="M132.814 101.539H131.145C130.639 101.539 130.229 101.917 130.229 102.383C130.229 102.85 130.639 103.228 131.145 103.228H132.814C133.32 103.228 133.73 102.85 133.73 102.383C133.73 101.917 133.32 101.539 132.814 101.539Z" fill="#E6E6E6"/>
<path d="M122.214 101.68H111.842C111.336 101.68 110.925 102.058 110.925 102.524C110.925 102.991 111.336 103.369 111.842 103.369H122.214C122.72 103.369 123.13 102.991 123.13 102.524C123.13 102.058 122.72 101.68 122.214 101.68Z" fill="#E6E6E6"/>
<path d="M113.409 97.7264H111.74C111.234 97.7264 110.824 98.1046 110.824 98.571C110.824 99.0375 111.234 99.4156 111.74 99.4156H113.409C113.915 99.4156 114.325 99.0375 114.325 98.571C114.325 98.1046 113.915 97.7264 113.409 97.7264Z" fill="#E6E6E6"/>
<path d="M132.496 97.7264H130.827C130.321 97.7264 129.911 98.1046 129.911 98.571C129.911 99.0375 130.321 99.4156 130.827 99.4156H132.496C133.002 99.4156 133.412 99.0375 133.412 98.571C133.412 98.1046 133.002 97.7264 132.496 97.7264Z" fill="#E6E6E6"/>
<path d="M137.904 97.7264H136.235C135.729 97.7264 135.319 98.1046 135.319 98.571C135.319 99.0375 135.729 99.4156 136.235 99.4156H137.904C138.41 99.4156 138.82 99.0375 138.82 98.571C138.82 98.1046 138.41 97.7264 137.904 97.7264Z" fill="#E6E6E6"/>
<path d="M127.304 97.8672H116.932C116.426 97.8672 116.015 98.2454 116.015 98.7118C116.015 99.1783 116.426 99.5564 116.932 99.5564H127.304C127.81 99.5564 128.22 99.1783 128.22 98.7118C128.22 98.2454 127.81 97.8672 127.304 97.8672Z" fill="#E6E6E6"/>
<path d="M118.499 93.914H116.83C116.324 93.914 115.914 94.2921 115.914 94.7586C115.914 95.225 116.324 95.6032 116.83 95.6032H118.499C119.005 95.6032 119.415 95.225 119.415 94.7586C119.415 94.2921 119.005 93.914 118.499 93.914Z" fill="#E6E6E6"/>
<path d="M137.586 93.914H135.917C135.411 93.914 135.001 94.2921 135.001 94.7586C135.001 95.225 135.411 95.6032 135.917 95.6032H137.586C138.092 95.6032 138.502 95.225 138.502 94.7586C138.502 94.2921 138.092 93.914 137.586 93.914Z" fill="#E6E6E6"/>
<path d="M142.994 93.914H141.325C140.819 93.914 140.409 94.2921 140.409 94.7586C140.409 95.225 140.819 95.6032 141.325 95.6032H142.994C143.5 95.6032 143.91 95.225 143.91 94.7586C143.91 94.2921 143.5 93.914 142.994 93.914Z" fill="#E6E6E6"/>
<path d="M132.394 94.0548H122.022C121.516 94.0548 121.105 94.4329 121.105 94.8994C121.105 95.3659 121.516 95.744 122.022 95.744H132.394C132.9 95.744 133.31 95.3659 133.31 94.8994C133.31 94.4329 132.9 94.0548 132.394 94.0548Z" fill="#E6E6E6"/>
<path d="M111.315 160.108C111.245 160.14 111.175 160.173 111.105 160.202C110.663 160.404 110.218 160.604 109.769 160.8C108.427 161.39 107.067 161.95 105.691 162.481C102.069 163.877 98.3532 165.056 94.5662 166.009C93.9299 162.352 93.3127 153.727 92.721 147.383C92.6097 146.19 92.4983 145.078 92.387 144.096C92.2813 142.806 92.0804 141.525 91.7857 140.26C91.7569 140.161 91.7153 140.066 91.6617 139.976C91.7221 140.483 91.7857 141.996 91.8462 144.096C91.878 145.078 91.9066 146.19 91.9384 147.383C92.088 153.489 92.2438 161.797 92.3997 166.528C91.9575 166.627 91.5122 166.727 91.0668 166.821C90.7868 166.883 90.5037 166.941 90.2206 166.997C89.877 167.067 89.5334 167.138 89.1898 167.202C88.8304 167.273 88.4709 167.34 88.1114 167.405C82.2369 168.468 76.2641 169.003 70.2774 169C69.8797 169 69.4852 168.997 69.0876 168.994C68.9667 168.994 68.8458 168.991 68.7218 168.988C68.3718 168.982 68.0092 168.977 67.6401 168.968C60.5653 168.787 53.5369 167.853 46.6949 166.185L46.9716 147.383L47.0193 144.096L47.0384 142.85C46.8808 143.251 46.7866 143.67 46.7585 144.096C46.6471 144.897 46.5326 146.032 46.4181 147.383C45.9823 152.592 45.5337 160.994 45.0692 165.774C39.5689 164.331 35.5478 163.014 30.5214 160.698C30.3274 160.61 30.1301 160.519 29.9361 160.428C29.9711 160.202 30.0093 159.976 30.0442 159.745C30.6137 156.096 29.9424 151.348 30.5723 147.383C31.0527 144.325 31.549 141.386 32.0484 138.893C32.6529 135.893 33.2668 133.536 33.8745 132.389C34.5743 131.066 35.2742 129.764 35.9518 128.518C36.2445 127.981 36.5319 127.454 36.8139 126.937C36.9666 126.658 37.1193 126.383 37.2688 126.113C37.9496 124.884 38.5922 123.749 39.1808 122.743C39.5943 122.037 39.9761 121.397 40.326 120.837C40.7364 120.177 41.0991 119.632 41.3981 119.218C43.6068 116.132 46.8933 113.834 50.7128 112.705L50.8082 112.682L50.9005 112.717L51.0054 112.761L57.0689 110.717L59.7761 104.708L73.6813 103.919L75.9273 105.494L77.0757 106.3L78.3005 107.159L80.5528 108.74L81.1922 108.922L82.1434 109.192L88.649 111.033L88.7158 111.007L88.8113 111.03C92.287 112.056 95.3294 114.055 97.5151 116.749C97.7315 117.007 97.9319 117.274 98.1259 117.544C98.654 118.265 99.3666 119.406 100.206 120.837C100.553 121.427 100.919 122.066 101.304 122.743C101.536 123.151 103.54 128.917 105.491 134.805C107.313 140.319 109.088 145.941 109.321 147.383C109.362 147.65 109.407 147.92 109.448 148.187C109.712 149.856 109.973 151.536 110.224 153.175C110.596 155.607 110.959 157.953 111.306 160.05C111.309 160.07 111.312 160.088 111.315 160.108Z" fill="#3F3D56"/>
<path opacity="0.2" d="M96.5792 138.88L93.8761 129.263L91.4893 137.561L96.5792 138.88Z" fill="black"/>
<path d="M5.03569 138.768C5.17584 139.145 5.44171 139.47 5.79511 139.698C6.14852 139.927 6.57127 140.046 7.00268 140.039L15.4304 139.839C15.8649 139.831 16.2851 139.694 16.628 139.447C16.971 139.201 17.2183 138.859 17.333 138.473L18.5256 126.717C18.9487 126.893 19.4094 126.981 19.8738 126.972C20.6887 126.953 21.4621 126.637 22.0238 126.092C22.5856 125.548 22.8897 124.82 22.8692 124.069C22.8488 123.317 22.5054 122.604 21.9148 122.087C21.3241 121.569 20.5344 121.288 19.7196 121.307C19.5339 121.307 19.3488 121.324 19.1672 121.36C18.9698 121.163 18.7298 121.007 18.4628 120.9C18.1957 120.794 17.9075 120.741 17.6167 120.743L4.65296 121.052C4.54543 121.056 4.43843 121.068 4.33319 121.089C4.0489 121.138 3.77926 121.242 3.54241 121.395C3.30557 121.548 3.10702 121.746 2.96013 121.976C2.81325 122.205 2.72143 122.461 2.69086 122.726C2.66029 122.991 2.69168 123.259 2.78292 123.512L5.03569 138.768ZM18.7702 125.919L19.6188 123.117C19.7154 122.793 19.7176 122.452 19.6253 122.127C19.6665 122.127 19.7028 122.109 19.744 122.109C20.3259 122.098 20.8888 122.3 21.3093 122.671C21.7298 123.042 21.9736 123.552 21.9872 124.088C22.0009 124.624 21.7832 125.144 21.382 125.532C20.9808 125.921 20.4287 126.147 19.8469 126.161C19.4707 126.172 19.0985 126.088 18.7702 125.919V125.919Z" fill="#2F2E41"/>
<path d="M4.33319 121.089C4.60938 122.544 7.71456 123.568 11.4483 123.39C14.8817 123.244 17.6891 122.133 18.2034 120.816C18.0131 120.764 17.8151 120.739 17.6167 120.743L4.65297 121.052C4.54543 121.056 4.43844 121.068 4.33319 121.089V121.089Z" fill="#3F3D56"/>
<path d="M12.1326 132.308C12.1497 132.304 12.1659 132.298 12.1806 132.289L14.0108 131.185C14.0329 131.171 14.0511 131.153 14.0637 131.132C14.0763 131.11 14.0829 131.086 14.0829 131.062C14.0829 131.038 14.0763 131.014 14.0638 130.992C14.0512 130.971 14.033 130.953 14.0109 130.939L12.1086 129.791C12.0911 129.78 12.0716 129.773 12.051 129.769C12.0305 129.765 12.0093 129.765 11.9888 129.769C11.9683 129.773 11.9488 129.781 11.9315 129.792C11.9142 129.803 11.8994 129.816 11.8879 129.833C11.8764 129.849 11.8685 129.867 11.8646 129.886C11.8608 129.905 11.861 129.924 11.8653 129.943C11.8696 129.962 11.8779 129.98 11.8898 129.996C11.9016 130.012 11.9167 130.025 11.9343 130.036L13.6334 131.062L12.0065 132.044C11.975 132.063 11.9518 132.091 11.9411 132.124C11.9303 132.158 11.9328 132.193 11.9479 132.225C11.963 132.257 11.9899 132.283 12.0237 132.298C12.0575 132.313 12.0961 132.317 12.1326 132.308H12.1326Z" fill="#406882"/>
<path d="M9.24187 132.431C9.27259 132.424 9.30028 132.409 9.32141 132.387C9.34253 132.365 9.35611 132.338 9.36042 132.309C9.36473 132.28 9.35956 132.251 9.34559 132.224C9.33161 132.198 9.30946 132.176 9.28198 132.162L7.59495 131.27L9.22553 130.154C9.24228 130.142 9.25642 130.128 9.26714 130.111C9.27785 130.095 9.28493 130.077 9.28797 130.058C9.29102 130.038 9.28996 130.019 9.28487 130C9.27978 129.982 9.27075 129.964 9.25831 129.949C9.24586 129.933 9.23023 129.92 9.21232 129.91C9.1944 129.901 9.17456 129.894 9.15391 129.891C9.13326 129.888 9.11221 129.889 9.09196 129.894C9.07172 129.899 9.05268 129.907 9.03593 129.919L7.21033 131.169C7.18912 131.183 7.17216 131.202 7.16098 131.224C7.14981 131.246 7.14476 131.271 7.14632 131.295C7.14787 131.319 7.15597 131.343 7.16987 131.363C7.18378 131.384 7.20306 131.401 7.22597 131.413L9.12366 132.416C9.15947 132.435 9.20186 132.441 9.24187 132.431V132.431Z" fill="#406882"/>
<path d="M11.9506 133.276C11.9659 133.273 11.9806 133.267 11.9941 133.259C12.012 133.249 12.0276 133.236 12.0399 133.22C12.0522 133.205 12.0612 133.187 12.0661 133.169C12.071 133.15 12.0719 133.13 12.0687 133.111C12.0655 133.092 12.0583 133.074 12.0474 133.058L9.45297 129.125C9.43092 129.092 9.39556 129.069 9.35464 129.06C9.31372 129.051 9.27058 129.057 9.23464 129.077C9.1987 129.097 9.17289 129.13 9.16287 129.167C9.15285 129.205 9.15943 129.245 9.18116 129.278L11.7756 133.21C11.7933 133.237 11.8199 133.258 11.8513 133.27C11.8828 133.282 11.9176 133.284 11.9506 133.276V133.276Z" fill="#406882"/>
<path d="M249.775 160.427C249.581 160.518 249.383 160.609 249.189 160.697C244.163 163.014 240.142 164.331 234.642 165.773C234.177 160.993 233.729 152.591 233.293 147.383C233.178 146.031 233.064 144.896 232.952 144.095C232.924 143.67 232.83 143.25 232.672 142.849L232.691 144.095L232.739 147.383L233.016 166.184C226.174 167.853 219.145 168.787 212.071 168.967C211.702 168.976 211.339 168.982 210.989 168.988C210.865 168.991 210.744 168.993 210.623 168.993C210.226 168.996 209.831 168.999 209.433 168.999C201.978 169.004 194.549 168.174 187.311 166.527C187.467 161.797 187.623 153.489 187.772 147.383C187.804 146.189 187.833 145.078 187.865 144.095C187.925 141.996 187.989 140.482 188.049 139.975C187.996 140.065 187.954 140.16 187.925 140.259C187.63 141.524 187.43 142.806 187.324 144.095C187.212 145.078 187.101 146.189 186.99 147.383C186.398 153.726 185.781 162.351 185.145 166.008C181.358 165.055 177.641 163.876 174.02 162.48C172.111 161.747 170.236 160.956 168.395 160.108C168.745 157.996 169.111 155.629 169.487 153.175C169.779 151.272 170.081 149.315 170.39 147.383C170.867 144.397 187.079 112.159 190.899 111.03L190.995 111.006L191.062 111.033L197.567 109.191L198.519 108.921L199.158 108.739L201.41 107.159L202.635 106.299L203.784 105.493L206.029 103.918L219.935 104.707L222.642 110.716L228.705 112.76L228.81 112.716L228.903 112.681L228.998 112.704C232.818 113.833 236.104 116.131 238.313 119.218C238.612 119.631 238.974 120.177 239.385 120.837C239.735 121.397 240.116 122.036 240.53 122.743C241.119 123.749 241.761 124.884 242.442 126.112C242.591 126.382 242.744 126.658 242.897 126.936C243.18 127.453 243.467 127.979 243.759 128.517C244.437 129.764 245.136 131.066 245.836 132.388C246.444 133.535 247.058 135.893 247.662 138.893C248.162 141.386 248.658 144.324 249.138 147.383C249.768 151.348 249.097 156.096 249.667 159.744C249.702 159.976 249.74 160.201 249.775 160.427Z" fill="#3F3D56"/>
<path d="M208.993 101.761C217.925 101.761 225.165 95.0863 225.165 86.8526C225.165 78.6189 217.925 71.9441 208.993 71.9441C200.061 71.9441 192.821 78.6189 192.821 86.8526C192.821 95.0863 200.061 101.761 208.993 101.761Z" fill="#FFB6B6"/>
<path opacity="0.2" d="M183.131 138.88L185.834 129.263L188.221 137.561L183.131 138.88Z" fill="black"/>
<path d="M255.062 132.614C254.095 144.896 255.097 150.304 249.759 160.43C244.902 162.622 239.843 164.41 234.642 165.773C234.101 165.914 233.559 166.051 233.016 166.184C226.174 167.853 219.145 168.787 212.071 168.967C211.702 168.976 211.339 168.982 210.989 168.988C210.865 168.991 210.744 168.993 210.623 168.993C210.226 168.996 209.831 168.999 209.433 168.999C201.978 169.004 194.549 168.174 187.311 166.527C186.586 166.363 185.864 166.19 185.145 166.008C181.358 165.055 177.642 163.876 174.02 162.48C172.111 161.747 170.236 160.956 168.395 160.108C167.979 159.914 167.562 159.72 167.152 159.521C165.042 156.102 163.843 151.943 163.818 146.946C165.278 138.336 251.836 125.189 255.062 132.614Z" fill="#2F2E41"/>
<path opacity="0.2" d="M255.059 134.717C255.109 133.957 255.164 133.172 255.228 132.354C252.003 124.928 165.444 138.075 163.984 146.686C163.988 147.475 164.025 148.241 164.086 148.989C167.622 140.491 249.854 127.995 255.059 134.717Z" fill="black"/>
<path d="M161.665 133.193L168.77 129.919L162.849 115.182L161.289 107.75C161.086 106.784 160.612 105.885 159.914 105.141C159.216 104.397 158.318 103.835 157.311 103.512C156.304 103.188 155.222 103.113 154.173 103.296C153.125 103.478 152.147 103.911 151.337 104.551V104.551C150.137 105.5 149.383 106.841 149.235 108.292C149.087 109.743 149.557 111.19 150.544 112.328L156.336 119.002L161.665 133.193Z" fill="#FFB6B6"/>
<path d="M168.77 127.189L159.297 131.556L166.486 152.322C167.002 153.813 167.928 155.156 169.172 156.22C170.417 157.285 171.94 158.034 173.591 158.397C175.628 158.844 177.766 158.682 179.696 157.933C181.626 157.184 183.247 155.889 184.324 154.234L203.388 124.111C204.739 122.036 205.156 119.555 204.549 117.2C203.943 114.845 202.362 112.801 200.144 111.506V111.506C198.951 110.81 197.612 110.352 196.215 110.164C194.817 109.976 193.393 110.062 192.033 110.415C190.674 110.768 189.411 111.381 188.325 112.214C187.24 113.047 186.357 114.081 185.734 115.25L174.099 138.106L168.77 127.189Z" fill="#3F3D56"/>
<path d="M66.6494 100.732C76.4769 100.732 84.4437 93.3881 84.4437 84.3286C84.4437 75.2691 76.4769 67.9249 66.6494 67.9249C56.8219 67.9249 48.8551 75.2691 48.8551 84.3286C48.8551 93.3881 56.8219 100.732 66.6494 100.732Z" fill="#A0616A"/>
<path d="M49.0688 73.0245C50.5156 71.2269 52.5951 69.9488 54.1858 68.2576C55.0585 67.3296 55.7832 66.2782 56.7644 65.4474C58.5873 63.9039 61.1367 63.2715 63.6105 63.1928C66.3215 63.1286 69.0109 63.6537 71.4609 64.7256C73.911 65.7974 76.0529 67.386 77.7133 69.3626C79.0063 68.6637 80.2993 67.9649 81.5923 67.266C82.1032 68.5055 82.614 69.745 83.1249 70.9845C83.5441 70.6485 84.0788 70.4603 84.6342 70.4531C85.1897 70.4459 85.7299 70.6203 86.1592 70.9452C86.5885 71.2701 86.8792 71.7247 86.9797 72.2283C87.0801 72.7319 86.9839 73.2521 86.7081 73.6966C87.0158 72.82 88.4257 72.634 89.203 73.2131C89.9803 73.7922 90.1884 74.8225 90.0616 75.7364C89.9025 76.739 89.4216 77.6748 88.681 78.4234C87.9404 79.1721 86.9737 79.6995 85.9054 79.9377C84.2181 80.2842 82.2542 79.9202 80.9037 80.915C79.8209 81.7125 79.4941 83.1648 78.3891 83.936C77.0275 84.8863 75.1031 84.4468 73.4106 84.6568C70.4495 85.0242 68.1048 87.8161 68.4607 90.5509C68.1928 89.688 67.9112 88.8001 67.3032 88.0991C66.6951 87.3981 65.6709 86.9241 64.7383 87.1818C63.1967 87.6077 62.9445 89.5448 63.3182 90.9878C64.309 94.8149 68.0644 101.001 68.0644 101.001C63.1882 102.774 57.379 101.098 53.6167 97.7329C49.8545 94.3683 47.895 89.604 47.0415 84.8363C46.3177 80.7934 46.4203 76.3154 49.0688 73.0245Z" fill="#2F2E41"/>
<path d="M229.26 95.0711C232.645 87.916 230.727 81.3317 226.6 77.8388V77.8359C224.978 74.4839 222.821 71.8973 220.352 71.2903C219.159 70.5835 218.001 69.7536 216.716 69.3313C216.118 69.1247 215.48 69.0319 214.841 69.0586C214.203 69.0853 213.576 69.231 213 69.4867L212.345 69.3254C211.788 68.0145 211.136 67.9881 210.411 68.8503C207.618 67.6508 205.101 67.1142 202.862 67.1142C195.558 67.1142 191.238 72.8152 190.092 79.7069L196.197 81.2055L198.319 78.0881L197.339 81.487L200.708 82.3111C205.836 88.4667 199.7 102.667 191.922 110.567C193.773 110.095 195.617 109.696 197.454 109.371L204.128 100.35L199.992 108.561C202.14 108.271 204.879 108.549 207.872 109.11C208.881 107.895 209.412 106.277 208.89 104.834C209.743 106.356 210.332 107.991 210.634 109.681C216.952 111.104 225.57 111.834 230.214 112.374C233.967 111.244 233.977 98.4906 229.26 95.0711Z" fill="#2F2E41"/>
<path d="M231.462 70.7325C233.942 75.851 228.939 78.0525 224.355 77.9903C220.213 77.9342 216.693 75.2519 216.482 71.4384C216.38 69.6071 217.072 67.8137 218.405 66.4526C219.738 65.0915 221.603 64.2742 223.589 64.1806C227.726 63.9857 229.773 67.246 231.462 70.7325Z" fill="#2F2E41"/>
<path d="M116.428 154.054L112.343 147.774L125.924 138.276L131.571 132.78C132.304 132.066 133.228 131.542 134.251 131.26C135.273 130.978 136.357 130.949 137.396 131.174C138.434 131.4 139.39 131.873 140.168 132.546C140.946 133.219 141.518 134.068 141.829 135.009V135.009C142.289 136.404 142.143 137.908 141.422 139.205C140.701 140.503 139.462 141.491 137.966 141.962L129.191 144.723L116.428 154.054Z" fill="#A0616A"/>
<path d="M119.38 153.847L113.02 158.733L111.306 160.05L111.105 160.202C110.663 160.404 110.218 160.604 109.769 160.8C108.427 161.39 107.067 161.95 105.691 162.481C102.069 163.877 98.3532 165.056 94.5661 166.009C93.8472 166.191 93.1251 166.364 92.3997 166.528C91.9575 166.627 91.5122 166.727 91.0668 166.821C90.7868 166.883 90.5037 166.941 90.2206 166.997C89.877 167.067 89.5334 167.138 89.1899 167.202C88.8304 167.273 88.4709 167.34 88.1114 167.405C87.1441 166.556 86.374 165.535 85.8479 164.404C85.3218 163.273 85.0507 162.055 85.0511 160.824C85.0511 160.745 85.0511 160.662 85.0542 160.58L86.0754 136.436L86.5272 125.735C86.5968 123.315 87.6903 121.016 89.574 119.329C91.4578 117.642 93.9824 116.702 96.6085 116.708C96.9139 116.708 97.2161 116.723 97.5152 116.749C97.7315 117.007 97.9319 117.274 98.126 117.544C98.654 118.265 99.3666 119.406 100.206 120.837C100.553 121.427 100.919 122.066 101.304 122.743C101.536 123.151 103.54 128.917 105.491 134.805L104.632 140.955L103.079 152.041L109.448 148.187L113.934 145.471L114.465 146.29L115.849 148.419L118.521 152.524L119.38 153.847Z" fill="#3F3D56"/>
<path d="M115.893 146.947C115.89 147.445 115.877 147.935 115.849 148.419C115.782 149.754 115.614 151.082 115.346 152.395C114.907 154.6 114.124 156.735 113.021 158.733C112.874 159 112.718 159.264 112.559 159.522C112.149 159.721 111.732 159.915 111.315 160.108C111.245 160.141 111.175 160.173 111.105 160.202C109.333 161.014 107.529 161.774 105.691 162.481C102.069 163.877 98.3532 165.056 94.5662 166.009C93.8472 166.191 93.1251 166.364 92.3997 166.528C90.9841 166.85 89.5547 167.143 88.1114 167.405C82.237 168.469 76.2641 169.003 70.2774 169C69.8797 169 69.4853 168.997 69.0876 168.994C68.9667 168.994 68.8458 168.991 68.7218 168.988C68.3718 168.982 68.0092 168.977 67.6401 168.968C60.5653 168.787 53.5369 167.854 46.6949 166.185C46.1509 166.053 45.609 165.916 45.0692 165.774C39.868 164.41 34.8089 162.622 29.952 160.431C24.6139 150.304 25.616 144.897 24.6489 132.615C26.634 128.043 60.2183 131.272 86.0754 136.436C93.0932 137.838 99.5384 139.383 104.632 140.955C109.893 142.577 113.708 144.225 115.203 145.774C115.552 146.094 115.792 146.502 115.893 146.947V146.947Z" fill="#2F2E41"/>
<path opacity="0.2" d="M24.6507 134.717C24.6013 133.957 24.5461 133.172 24.4817 132.354C27.7075 124.928 114.266 138.075 115.726 146.686C115.722 147.475 115.685 148.241 115.624 148.989C112.088 140.491 29.8561 127.995 24.6507 134.717Z" fill="black"/>
</g>
<defs>
<clipPath id="clip0_223_544">
<rect width="280" height="169" fill="white"/>
</clipPath>
</defs>
</svg>
