<svg width="57" height="43" viewBox="0 0 57 43" fill="none" xmlns="http://www.w3.org/2000/svg">
<path d="M53.9773 0.755554H2.99726C1.80986 0.755554 0.84729 1.61393 0.84729 2.6728V40.3045C0.84729 41.3634 1.80986 42.2218 2.99726 42.2218H53.9773C55.1647 42.2218 56.1273 41.3634 56.1273 40.3045V2.6728C56.1273 1.61393 55.1647 0.755554 53.9773 0.755554Z" fill="white"/>
<path d="M53.99 43H3.00136C2.20456 42.998 1.44117 42.7143 0.87855 42.2111C0.315932 41.708 -3.25224e-06 41.0264 0 40.3159V2.67647C0 1.96663 0.316211 1.28586 0.879074 0.783919C1.44194 0.281982 2.20535 0 3.00136 0H53.99C54.7868 -2.9002e-06 55.5511 0.281734 56.1154 0.783451C56.6796 1.28517 56.9977 1.96592 57 2.67647V40.3159C57 41.0277 56.6829 41.7105 56.1184 42.2138C55.5539 42.7172 54.7883 43 53.99 43V43ZM3.00136 1.54913C2.66151 1.54913 2.33559 1.66952 2.09528 1.88381C1.85498 2.09811 1.71998 2.38875 1.71998 2.69181V40.3312C1.71997 40.635 1.8547 40.9264 2.09476 41.1419C2.33482 41.3574 2.66072 41.4795 3.00136 41.4815H53.99C54.3322 41.4815 54.6603 41.3603 54.9022 41.1446C55.1441 40.9289 55.28 40.6363 55.28 40.3312V2.67647C55.2733 2.37539 55.1344 2.08867 54.8932 1.87789C54.652 1.66711 54.3277 1.54907 53.99 1.54913H3.00136Z" fill="#093F68"/>
<path d="M3.00132 0.782196H53.99C54.5602 0.782196 55.1071 0.98419 55.5103 1.34374C55.9135 1.7033 56.14 2.19096 56.14 2.69944V6.02011H0.859955V2.69944C0.85995 2.19228 1.08528 1.70578 1.48662 1.34645C1.88796 0.987112 2.43261 0.784225 3.00132 0.782196V0.782196Z" fill="#6998AB"/>
<path d="M56.14 6.77171H0.859988C0.631905 6.77171 0.413163 6.69091 0.251884 6.54709C0.090605 6.40327 0 6.20821 0 6.00481V2.67647C0 1.96663 0.316211 1.28586 0.879074 0.783919C1.44194 0.281982 2.20535 0 3.00136 0H53.99C54.7868 -2.9002e-06 55.5511 0.281734 56.1154 0.783451C56.6796 1.28517 56.9977 1.96592 57 2.67647V6.00481C57 6.20821 56.9094 6.40327 56.7481 6.54709C56.5868 6.69091 56.3681 6.77171 56.14 6.77171ZM1.71998 5.23791H55.28V2.67647C55.2733 2.37539 55.1344 2.08867 54.8932 1.87789C54.652 1.66711 54.3277 1.54907 53.99 1.54913H3.00136C2.66151 1.54913 2.33559 1.66952 2.09528 1.88381C1.85498 2.09811 1.71998 2.38875 1.71998 2.69181V5.23791Z" fill="#093F68"/>
<path d="M5.15128 4.40972C5.78773 4.40972 6.30367 3.94962 6.30367 3.38207C6.30367 2.81452 5.78773 2.35443 5.15128 2.35443C4.51484 2.35443 3.9989 2.81452 3.9989 3.38207C3.9989 3.94962 4.51484 4.40972 5.15128 4.40972Z" fill="#093F68"/>
<path d="M8.37629 4.40972C9.01273 4.40972 9.52868 3.94962 9.52868 3.38207C9.52868 2.81452 9.01273 2.35443 8.37629 2.35443C7.73984 2.35443 7.22391 2.81452 7.22391 3.38207C7.22391 3.94962 7.73984 4.40972 8.37629 4.40972Z" fill="#093F68"/>
<path d="M11.6098 4.40972C12.2463 4.40972 12.7622 3.94962 12.7622 3.38207C12.7622 2.81452 12.2463 2.35443 11.6098 2.35443C10.9734 2.35443 10.4574 2.81452 10.4574 3.38207C10.4574 3.94962 10.9734 4.40972 11.6098 4.40972Z" fill="#093F68"/>
<path d="M30.8219 11.7719L33.6771 12.6846L26.1522 32.992L23.3142 32.0794L30.8219 11.7719Z" fill="#093F68"/>
<path d="M21.3878 20.4532L13.433 23.6895V23.7432L21.3878 26.9795V30.5226L8.68582 25.3613V22.0713L21.3878 16.8871V20.4532Z" fill="#093F68"/>
<path d="M35.6121 26.9795L43.567 23.7432V23.6895L35.6121 20.4532V16.8871L48.3055 22.0483V25.3383L35.6121 30.4996V26.9795Z" fill="#093F68"/>
</svg>
