<svg width="361" height="282" viewBox="0 0 361 282" fill="none" xmlns="http://www.w3.org/2000/svg">
<path fill-rule="evenodd" clip-rule="evenodd" d="M141.189 0.165565C177.066 2.85134 189.683 36.0567 214.807 54.3093C232.773 67.3621 248.875 80.4719 268.253 92.4794C298.144 111.002 350.665 116.896 359.859 144.191C368.43 169.637 326.465 189.403 308.625 212.334C290.338 235.84 290.31 274.841 253.335 281.115C211.819 288.159 181.245 251.176 141.189 240.745C117.794 234.652 90.7146 240.928 68.4719 232.974C45.6741 224.822 26.2322 211.741 14.9036 195.587C3.86895 179.852 8.00822 161.698 6.20881 144.191C4.26521 125.282 -5.20916 106.153 3.87682 88.3083C13.5537 69.3038 36.7755 56.1622 57.9544 42.5672C83.703 26.0388 106.559 -2.42689 141.189 0.165565Z" fill="#EAF9F3"/>
<path fill-rule="evenodd" clip-rule="evenodd" d="M141.189 0.165565C177.066 2.85134 189.683 36.0567 214.807 54.3093C232.773 67.3621 248.875 80.4719 268.253 92.4794C298.144 111.002 350.665 116.896 359.859 144.191C368.43 169.637 326.465 189.403 308.625 212.334C290.338 235.84 290.31 274.841 253.335 281.115C211.819 288.159 181.245 251.176 141.189 240.745C117.794 234.652 90.7146 240.928 68.4719 232.974C45.6741 224.822 26.2322 211.741 14.9036 195.587C3.86895 179.852 8.00822 161.698 6.20881 144.191C4.26521 125.282 -5.20916 106.153 3.87682 88.3083C13.5537 69.3038 36.7755 56.1622 57.9544 42.5672C83.703 26.0388 106.559 -2.42689 141.189 0.165565Z" fill="#F1F1F1" fill-opacity="0.73"/>
</svg>
